<svg xmlns="http://www.w3.org/2000/svg" width="663" height="593">
    <path fill="#231D1D" fill-rule="evenodd" d="M602.17 423.362c-30.329 28.806-42.252 124.013-117.269 158.019-48.365 21.921-105.035 10.704-153.831-24.044-49.07 34.43-105.859 45.252-154.083 22.953-74.765-34.563-85.981-129.852-116.095-158.882-30.114-29.029-59.99-5.935-59.99-5.935s10.578-94.799 83.604-30.129c0 0 8.899-35.826 66.059-77.372 21.245-15.436 8.58-45.364 8.58-45.364s-7.733 25.1-25.813 16.513c-18.073-8.58-17.056-41.739 7.866-48.41 24.914-6.67 67.782 18.549 52.042 60.792-15.733 42.23-67.084 83.226-.899 135.87 66.178 52.636 19.217 105.443 9.731 106.067-9.486.632-35.068 14.685-63.407-34.029 0 0-2.585 23.087 46.278 53.32 32.038 19.819 85.082 10.192 123.895-13.341-18.14-16.542-34.668-36.495-48.558-59.329-46.404-76.265 17.731-131.241 55.095-145.281-10.081-37.192-24.209-78.1-41.643-100.184 0 0 50.757-48.283 51.997-220.365L333.002.608l7.272 13.623c1.24 172.082 51.997 220.365 51.997 220.365-17.582 22.277-31.792 63.682-41.895 101.128 37.483 15.525 98.104 70.367 51.975 144.924-14.039 22.693-30.686 42.504-48.922 58.891 38.634 23.792 91.56 33.79 123.717 14.225 49.085-29.869 46.671-52.971 46.671-52.971-28.695 48.499-54.174 34.252-63.652 33.553-9.486-.698-56.053-53.846 10.518-105.993 66.572-52.153 15.533-93.521.104-135.876-15.421-42.348 27.633-67.255 52.495-60.399 24.87 6.856 25.643 40.016 7.503 48.461-18.14 8.454-25.687-16.698-25.687-16.698s-12.888 29.824 8.245 45.424c56.856 41.969 65.48 77.862 65.48 77.862 73.509-64.128 83.381 30.753 83.381 30.753s-29.705-23.317-60.034 5.482zm-270.617-6.619c-22.493 1.463-43.277 24.297-22.114 76.094 4.368 10.667 12.004 20.785 21.75 29.877 9.791-9.011 17.479-19.046 21.913-29.661 21.549-51.634-1.508-77.61-21.549-76.31z" opacity=".098"/>
</svg>
