<?xml version="1.0" encoding="UTF-8" standalone="no"?><!DOCTYPE svg PUBLIC "-//W3C//DTD SVG 1.1//EN" "http://www.w3.org/Graphics/SVG/1.1/DTD/svg11.dtd"><svg width="100%" height="100%" viewBox="0 0 434 15" version="1.1" xmlns="http://www.w3.org/2000/svg" xmlns:xlink="http://www.w3.org/1999/xlink" xml:space="preserve" xmlns:serif="http://www.serif.com/" style="fill-rule:evenodd;clip-rule:evenodd;stroke-linejoin:round;stroke-miterlimit:1.41421;"><rect id="footer-separator" x="0" y="0" width="433.854" height="14.876" style="fill:none;"/><rect x="0" y="6.938" width="375.331" height="1" style="fill:url(#_Linear1);"/><path d="M373.858,11.006c2.313,0 3.629,-1.089 3.629,-2.54l10.281,0c2.298,0 8.466,0.605 11.248,4.112c0,0 2.54,-2.297 2.298,-4.354c0,0 8.466,1.089 14.03,6.652c0,0 7.345,-7.171 18.51,-7.438c-11.165,-0.267 -18.51,-7.438 -18.51,-7.438c-5.564,5.563 -14.03,6.652 -14.03,6.652c0.242,-2.056 -2.298,-4.354 -2.298,-4.354c-2.782,3.507 -8.95,4.112 -11.248,4.112l-10.281,0c0,-1.452 -1.406,-2.54 -3.629,-2.54c-0.968,0 -3.628,0.393 -3.628,3.568c0,3.13 2.66,3.568 3.628,3.568" style="fill:#231d1d;fill-rule:nonzero;"/><defs><linearGradient id="_Linear1" x1="0" y1="0" x2="1" y2="0" gradientUnits="userSpaceOnUse" gradientTransform="matrix(216.543,0,0,5.72662,187.665,7.43812)"><stop offset="0" style="stop-color:#705c5c;stop-opacity:1"/><stop offset="1" style="stop-color:#231d1d;stop-opacity:1"/></linearGradient></defs></svg>