<?xml version="1.0" encoding="UTF-8" standalone="no"?><!DOCTYPE svg PUBLIC "-//W3C//DTD SVG 1.1//EN" "http://www.w3.org/Graphics/SVG/1.1/DTD/svg11.dtd"><svg width="100%" height="100%" viewBox="0 0 119 115" version="1.1" xmlns="http://www.w3.org/2000/svg" xmlns:xlink="http://www.w3.org/1999/xlink" xml:space="preserve" xmlns:serif="http://www.serif.com/" style="fill-rule:evenodd;clip-rule:evenodd;stroke-linejoin:round;stroke-miterlimit:1.41421;"><rect id="svg-wave" x="0" y="0" width="118.733" height="114.009" style="fill:none;"/><clipPath id="_clip1"><rect x="0" y="0" width="118.733" height="114.009"/></clipPath><g clip-path="url(#_clip1)"><path d="M69.366,111.602c3.85,1 7.665,2.136 11.436,3.405c-3.833,-0.371 -7.701,-1.54 -11.436,-3.405Zm-37.701,-0.152c6.851,0.412 13.665,1.26 20.398,2.523c-1.909,0.513 -3.827,0.839 -5.733,0.968c-3.168,-0.478 -6.359,-0.861 -9.568,-1.146c-0.903,-0.294 -1.793,-0.642 -2.669,-1.047c-0.851,-0.393 -1.659,-0.827 -2.428,-1.298Zm55.92,-2.14c2.588,0.885 5.155,1.833 7.698,2.842c-0.521,0.286 -1.059,0.555 -1.615,0.807c-0.3,0.136 -0.601,0.266 -0.905,0.388c-3.677,-1.413 -7.405,-2.699 -11.177,-3.852c2.086,0.213 4.119,0.166 5.999,-0.185Zm-35.253,-1.2c3.12,0.471 6.226,1.032 9.313,1.679c-0.813,0.497 -1.634,0.961 -2.462,1.39c-4.113,-0.779 -8.25,-1.401 -12.403,-1.866c1.839,-0.214 3.712,-0.625 5.552,-1.203Zm43.551,-3.059c1.861,0.747 3.709,1.526 5.543,2.338c-0.484,0.507 -0.989,0.999 -1.517,1.473c-1.939,-0.856 -3.895,-1.675 -5.867,-2.456c0.676,-0.463 1.287,-0.915 1.841,-1.355Zm-70.242,1.258c0.718,-0.014 1.437,-0.022 2.157,-0.025c0.36,-0.001 0.719,-0.001 1.078,0c1.728,0.008 3.455,0.044 5.181,0.109c0.491,0.336 1.016,0.677 1.575,1.023c0.757,0.468 1.574,0.851 2.44,1.155c-3.418,-0.202 -6.841,-0.297 -10.265,-0.287l-0.267,0.002c-0.67,-0.632 -1.301,-1.293 -1.899,-1.977Zm31.002,-4.414c4.159,0.585 8.294,1.329 12.395,2.226c-0.267,0.252 -0.536,0.499 -0.807,0.743c1.225,0.754 2.524,1.436 3.867,2.033c-4.321,-1.047 -8.689,-1.921 -13.091,-2.616c-0.807,-0.76 -1.596,-1.556 -2.364,-2.386Zm29.599,-0.379c2.494,0.83 4.968,1.718 7.421,2.663c-2.164,0.474 -3.861,-0.252 -4.781,-0.32c-0.522,-0.039 -1.625,-0.899 -2.64,-2.343Zm-58.399,-1.065c0.369,0.587 0.854,1.239 1.491,1.944c-2.14,0.07 -4.281,0.18 -6.42,0.332c-0.416,-0.624 -0.814,-1.258 -1.195,-1.897c2.035,-0.165 4.077,-0.292 6.124,-0.379Zm1.119,-0.043c1.6,-0.057 3.203,-0.089 4.809,-0.097c0.359,-0.001 0.718,-0.001 1.078,0c2.438,0.012 4.874,0.079 7.306,0.202c-0.458,0.774 -0.962,1.428 -1.442,1.937c-1.777,-0.075 -3.558,-0.121 -5.341,-0.137c-0.532,-0.003 -1.063,-0.003 -1.595,-0.003c-0.949,0.006 -1.897,0.019 -2.846,0.041c-0.638,-0.505 -1.296,-1.142 -1.969,-1.943Zm55.777,-9.16c7.687,2.091 15.227,4.726 22.55,7.874c-0.29,0.528 -0.589,1.055 -0.899,1.578c-1.771,-0.763 -3.556,-1.494 -5.353,-2.194c0.203,-0.73 0.161,-1.139 0.161,-1.139c-0.201,0.339 -0.4,0.661 -0.599,0.969c-5.339,-2.062 -10.787,-3.847 -16.32,-5.34c0.102,-0.571 0.253,-1.154 0.46,-1.748Zm-16.871,5.282c2.224,0.47 4.438,0.986 6.641,1.546c-0.428,0.555 -0.866,1.099 -1.311,1.631c-2.101,-0.523 -4.216,-1.004 -6.341,-1.443c0.385,-0.566 0.724,-1.145 1.011,-1.734Zm-17.381,-2.722c2.976,0.304 5.942,0.69 8.895,1.156c0.106,0.283 0.218,0.571 0.338,0.864c0.169,0.413 0.363,0.821 0.582,1.225c-2.799,-0.458 -5.614,-0.841 -8.444,-1.148c-0.47,-0.684 -0.927,-1.383 -1.371,-2.097Zm-32.371,0.016c5.176,-0.539 10.4,-0.828 15.655,-0.853c0.359,-0.001 0.718,-0.001 1.078,0c2.951,0.014 5.9,0.11 8.842,0.287c0.091,0.68 0.114,1.342 0.081,1.979c-0.506,-0.029 -1.012,-0.055 -1.518,-0.079c-2.824,-0.132 -5.651,-0.195 -8.477,-0.187c-4.943,0.015 -9.873,0.266 -14.772,0.746c-0.306,-0.636 -0.601,-1.268 -0.889,-1.893Zm51.71,-5.912c3.252,0.573 6.485,1.242 9.696,2.006c-0.227,0.557 -0.486,1.121 -0.777,1.69c-2.966,-0.688 -5.955,-1.292 -8.961,-1.81c0.061,-0.666 0.073,-1.295 0.042,-1.886Zm21.866,-5.188c6.887,1.817 13.66,4.071 20.268,6.739c-0.255,0.539 -0.512,1.093 -0.773,1.659c-6.922,-2.771 -14.045,-5.082 -21.318,-6.907c0.332,-0.288 0.681,-0.576 1.048,-0.864c0.268,-0.21 0.526,-0.419 0.775,-0.627Zm-52.102,2.728c0.635,0.665 1.185,1.327 1.66,1.982c-8.427,0.052 -16.813,0.763 -25.081,2.1c-0.289,-0.628 -0.575,-1.239 -0.861,-1.826c7.973,-1.36 16.086,-2.128 24.282,-2.256Zm7.651,0.079c3.672,0.129 7.336,0.384 10.984,0.762c-0.125,0.59 -0.198,1.234 -0.208,1.933c-3.452,-0.332 -6.912,-0.557 -10.358,-0.679c-0.183,-0.684 -0.321,-1.356 -0.418,-2.016Zm-14.818,-7.281c0.381,0.598 0.832,1.203 1.361,1.816c-7.016,0.714 -13.976,1.888 -20.832,3.502c-0.423,-0.592 -0.86,-1.116 -1.321,-1.56l-0.007,-0.007c6.817,-1.693 13.763,-2.954 20.799,-3.751Zm15.812,-0.996c0.421,-0.006 0.843,-0.01 1.265,-0.012c0.359,0 0.718,0 1.077,0c10.1,0.048 20.16,1.055 30.042,2.958c0.129,0.657 0.218,1.331 0.261,2.022c-9.739,-1.877 -19.704,-2.89 -29.776,-2.977c-0.533,-0.002 -1.066,-0.003 -1.598,-0.002c-0.645,0.002 -1.29,0.008 -1.934,0.018c0.178,-0.69 0.401,-1.359 0.663,-2.007Zm49.084,-3.461c7.286,1.797 14.452,4.082 21.438,6.828c-0.59,0.316 -1.189,0.718 -1.792,1.222c-6.524,-2.483 -13.213,-4.557 -20.023,-6.204c0.191,-0.622 0.313,-1.237 0.377,-1.846Zm-66.562,-2.362c-0.073,0.642 -0.09,1.291 -0.039,1.947c-8.043,1.403 -15.972,3.411 -23.717,5.992c-3.914,-0.878 -6.977,1.489 -6.977,1.489c0,0 0.038,-0.339 0.139,-0.894c5.153,-1.984 10.409,-3.717 15.751,-5.185l0.286,0.25c0,0 0.031,-0.124 0.111,-0.359c4.753,-1.294 9.573,-2.377 14.446,-3.24Zm-21.578,-0.58c0.812,0.189 1.693,0.523 2.65,1.033c-3.585,1.323 -7.128,2.769 -10.619,4.335c0.355,-0.908 0.81,-1.835 1.386,-2.666c2.174,-0.946 4.369,-1.847 6.583,-2.702Zm45.311,-1.818c1.088,-0.028 2.178,-0.045 3.269,-0.05c0.359,-0.001 0.718,-0.001 1.077,0c5.207,0.025 10.402,0.304 15.568,0.83c0.746,0.68 1.467,1.42 2.14,2.217c-5.685,-0.643 -11.42,-0.995 -17.181,-1.045c-0.533,-0.001 -1.065,-0.003 -1.598,-0.001c-1.832,0.005 -3.663,0.042 -5.491,0.112c0.707,-0.747 1.453,-1.436 2.216,-2.063Zm-20.619,-5.585c-0.421,0.751 -0.833,1.506 -1.214,2.266c-4.496,1.014 -8.949,2.219 -13.346,3.609c0.618,-0.836 1.354,-1.741 2.227,-2.7c4.061,-1.214 8.175,-2.275 12.333,-3.175Zm59.417,-1.528c3.453,0.561 6.887,1.231 10.297,2.008c0.956,0.875 1.804,1.723 2.556,2.535c-3.852,-0.93 -7.739,-1.724 -11.653,-2.378c-0.395,-0.725 -0.801,-1.446 -1.2,-2.165Zm-33.95,-1.892c2.524,-0.134 5.056,-0.208 7.596,-0.22c0.359,-0.001 0.718,-0.001 1.077,0c0.425,0.002 0.85,0.006 1.275,0.011c-0.212,0.662 -0.417,1.327 -0.617,1.993l-0.131,-0.002c-0.533,-0.001 -1.065,-0.003 -1.598,-0.001c-2.336,0.006 -4.669,0.067 -6.998,0.179c-0.195,-0.654 -0.396,-1.308 -0.604,-1.96Zm-21.76,-4.227c-0.091,0.351 -0.205,0.709 -0.34,1.073c-0.147,0.394 -0.31,0.787 -0.485,1.18c-2.759,0.708 -5.501,1.487 -8.222,2.336c0.148,-0.11 0.298,-0.22 0.45,-0.33c0.958,-0.696 1.56,-1.545 1.919,-2.437c2.211,-0.653 4.437,-1.261 6.678,-1.822Zm60.369,-3.354c2.063,0.281 4.121,0.601 6.171,0.96c-0.393,0.572 -0.919,1.041 -1.572,1.345c-0.358,0.167 -0.694,0.266 -1.01,0.31c-0.513,-0.086 -1.026,-0.169 -1.54,-0.25c-1.007,-0.5 -1.675,-1.578 -2.049,-2.365Zm-67.461,-0.743c-0.462,1.143 -1.984,4.13 -4.839,2.774c-0.329,-0.156 -0.625,-0.354 -0.888,-0.586c1.895,-0.764 3.804,-1.493 5.727,-2.188Zm60.098,-0.09c2.239,0.202 4.473,0.45 6.7,0.744c-0.152,0.505 -0.323,1.203 -0.407,1.996c-2.188,-0.299 -4.379,-0.551 -6.568,-0.754c0.008,-0.7 0.105,-1.363 0.275,-1.986Zm-17.905,-0.608c-0.312,0.654 -0.616,1.332 -0.912,2.03c-4.854,0.153 -9.696,0.531 -14.511,1.128c-0.263,-0.657 -0.533,-1.299 -0.81,-1.923c5.362,-0.685 10.778,-1.101 16.233,-1.235Zm-35.821,-1.46c0.321,0.56 0.578,1.164 0.755,1.811c-2.137,0.665 -4.264,1.373 -6.378,2.124c-0.134,-0.829 -0.342,-1.502 -0.473,-1.876c2.017,-0.725 4.05,-1.411 6.096,-2.059Zm-4.291,-3.789c0.709,0.321 1.394,0.728 2.023,1.215c-3.76,1.473 -7.47,3.081 -11.121,4.822c-0.179,-0.612 -0.247,-1.269 -0.2,-1.926c3.056,-1.461 6.157,-2.833 9.298,-4.111Zm40.746,-3.334c0.449,0.788 0.861,1.424 1.212,1.925c-6.95,0.498 -13.885,1.455 -20.752,2.856c-0.314,-0.478 -0.635,-0.927 -0.962,-1.341c0,0 0.201,-0.191 0.547,-0.617c6.557,-1.35 13.22,-2.3 19.955,-2.823Zm-3.108,-7.047c0.234,0.678 0.469,1.317 0.703,1.918c-4.857,0.715 -9.681,1.65 -14.457,2.798c0.323,-0.683 0.653,-1.436 0.986,-2.262c4.212,-0.985 8.471,-1.806 12.768,-2.454Zm-2.127,-7.726c0.142,0.656 0.288,1.29 0.437,1.904c-2.955,0.378 -5.895,0.836 -8.819,1.372c0.17,-0.644 0.336,-1.314 0.498,-2.008c2.613,-0.487 5.242,-0.91 7.884,-1.268Zm-1.32,-7.7c0.089,0.681 0.183,1.345 0.281,1.994c-1.893,0.273 -3.781,0.579 -5.663,0.919c0.109,-0.682 0.214,-1.382 0.314,-2.102c1.683,-0.297 3.373,-0.568 5.068,-0.811Zm-0.807,-8.606c0.04,0.664 0.084,1.316 0.131,1.956c-1.22,0.18 -2.437,0.374 -3.652,0.583c0.052,-0.654 0.1,-1.321 0.143,-1.999c1.123,-0.192 2.249,-0.372 3.378,-0.54Zm-1.455,-10.346l1.009,1.891c-0.879,0.136 -1.757,0.279 -2.634,0.43l0.001,-0.092l1.149,-2.153l0.091,-0.015l0.384,-0.061Z" style="fill:#382d2f;"/></g></svg>