<?xml version="1.0" encoding="UTF-8" standalone="no"?><!DOCTYPE svg PUBLIC "-//W3C//DTD SVG 1.1//EN" "http://www.w3.org/Graphics/SVG/1.1/DTD/svg11.dtd"><svg width="100%" height="100%" viewBox="0 0 218 233" version="1.1" xmlns="http://www.w3.org/2000/svg" xmlns:xlink="http://www.w3.org/1999/xlink" xml:space="preserve" xmlns:serif="http://www.serif.com/" style="fill-rule:evenodd;clip-rule:evenodd;stroke-linejoin:round;stroke-miterlimit:2;"><rect id="light-v" x="0" y="0" width="217.935" height="232.48" style="fill:none;"/><g><path d="M51.192,121.628l-0.145,0.145c-1.588,-0.058 -2.687,-0.087 -3.297,-0.087c-0.543,0 -1.4,0.029 -2.571,0.087c-0.223,-0.484 -0.722,-1.166 -1.496,-2.048l-4.314,-4.923c-0.939,-1.065 -1.951,-2.043 -3.036,-2.934l0,3.457c0,2.304 0.063,3.805 0.189,4.502c0.049,0.281 0.213,0.46 0.494,0.538c0.145,0.038 0.712,0.087 1.699,0.145l0.146,0.145l0,0.973l-0.131,0.145c-0.968,-0.058 -2.459,-0.087 -4.474,-0.087c-2.081,0 -3.572,0.029 -4.473,0.087l-0.145,-0.13l0,-0.988l0.145,-0.145c0.988,-0.058 1.554,-0.107 1.699,-0.145c0.281,-0.078 0.446,-0.257 0.494,-0.538c0.126,-0.697 0.189,-2.198 0.189,-4.502l0,-7.684c0,-2.304 -0.063,-3.805 -0.189,-4.502c-0.048,-0.281 -0.213,-0.46 -0.494,-0.538c-0.145,-0.038 -0.711,-0.087 -1.699,-0.145l-0.145,-0.145l0,-0.988l0.145,-0.131c0.93,0.059 2.421,0.088 4.473,0.088c2.102,0 3.593,-0.029 4.474,-0.088l0.131,0.131l0,1.002l-0.146,0.131c-0.987,0.058 -1.554,0.107 -1.699,0.145c-0.281,0.078 -0.445,0.257 -0.494,0.538c-0.126,0.697 -0.189,2.198 -0.189,4.502l0,3.602c1.811,-1.685 3.109,-2.934 3.893,-3.747l2.062,-2.135c0.707,-0.736 1.613,-1.743 2.717,-3.021l0,-1.002l0.159,-0.146c0.746,0.059 1.477,0.088 2.193,0.088c0.843,0 1.831,-0.029 2.963,-0.088l0.146,0.146l0,0.9l-0.146,0.145c-1.123,0 -1.956,0.18 -2.498,0.538c-0.784,0.523 -2.27,1.82 -4.459,3.892l-2.934,2.789c0.417,0.562 1.095,1.39 2.034,2.484l3.253,3.776c2.411,2.798 3.806,4.285 4.183,4.459c0.233,0.106 0.615,0.165 1.148,0.174l0.145,0.16l0,0.973Z" style="fill:url(#_Linear1);fill-rule:nonzero;"/><path d="M75.156,102.311l-0.145,0.145c-1.143,0 -1.787,0.305 -1.932,0.915c-0.078,0.339 -0.136,1.075 -0.174,2.208c-0.029,0.842 -0.044,2.057 -0.044,3.645l0,4.474c0,2.876 -0.566,4.928 -1.699,6.158c-1.501,1.627 -3.641,2.44 -6.42,2.44c-2.537,0 -4.517,-0.421 -5.941,-1.263c-1.2,-0.717 -1.985,-1.734 -2.352,-3.05c-0.233,-0.843 -0.349,-3.041 -0.349,-6.594l0,-3.748c0,-2.304 -0.063,-3.805 -0.189,-4.502c-0.048,-0.281 -0.213,-0.46 -0.494,-0.538c-0.145,-0.038 -0.711,-0.087 -1.699,-0.145l-0.145,-0.145l0,-0.973l0.145,-0.146c0.929,0.059 2.421,0.088 4.473,0.088c2.092,0 3.578,-0.029 4.459,-0.088l0.146,0.146l0,0.973l-0.146,0.145c-0.987,0.058 -1.554,0.107 -1.699,0.145c-0.281,0.078 -0.445,0.257 -0.494,0.538c-0.126,0.697 -0.189,2.198 -0.189,4.502l0,2.992c0,3.66 0.165,5.902 0.494,6.725c0.659,1.627 2.281,2.44 4.866,2.44c1.694,0 3.016,-0.416 3.965,-1.249c0.445,-0.397 0.755,-0.799 0.93,-1.206c0.174,-0.406 0.309,-1.036 0.406,-1.888c0.087,-0.794 0.131,-1.597 0.131,-2.411l0,-3.021c0,-2.537 -0.01,-4.27 -0.029,-5.199c-0.019,-0.872 -0.078,-1.438 -0.174,-1.7c-0.078,-0.193 -0.247,-0.344 -0.509,-0.45c-0.222,-0.087 -0.818,-0.16 -1.786,-0.218l-0.145,-0.145l0,-0.973l0.145,-0.146c0.842,0.059 1.709,0.088 2.6,0.088c0.668,0 1.951,-0.029 3.849,-0.088l0.145,0.146l0,0.973Z" style="fill:url(#_Linear2);fill-rule:nonzero;"/><path d="M93.731,114.976c0,1.598 -0.455,3.007 -1.365,4.227c-0.794,1.074 -1.835,1.873 -3.123,2.396c-1.181,0.484 -2.59,0.726 -4.226,0.726c-2.034,0 -4.028,-0.464 -5.984,-1.394l-0.175,-0.32c0.272,-1.113 0.407,-2.696 0.407,-4.749l0.145,-0.145l0.93,0l0.131,0.145l0,0.334c0,0.542 0.058,1.259 0.174,2.15c0.348,0.619 0.973,1.152 1.874,1.597c0.939,0.465 1.917,0.698 2.933,0.698c1.918,0 3.244,-0.669 3.98,-2.005c0.378,-0.687 0.567,-1.399 0.567,-2.135c0,-1.239 -0.518,-2.125 -1.555,-2.658c-0.513,-0.261 -1.341,-0.479 -2.483,-0.653c-2.586,-0.397 -4.285,-0.896 -5.098,-1.496c-1.23,-0.911 -1.845,-2.32 -1.845,-4.227c0,-1.985 0.668,-3.568 2.005,-4.75c1.413,-1.239 3.379,-1.859 5.896,-1.859c2.266,0 4.096,0.363 5.491,1.09l0.101,0.348c-0.232,1.153 -0.373,2.537 -0.421,4.154l-0.16,0.145l-0.915,0l-0.145,-0.145c-0.029,-1.162 -0.077,-1.917 -0.145,-2.266c-0.3,-0.455 -0.823,-0.842 -1.569,-1.162c-0.794,-0.329 -1.622,-0.493 -2.484,-0.493c-1.297,0 -2.323,0.343 -3.079,1.031c-0.707,0.649 -1.06,1.486 -1.06,2.513c0,1.113 0.402,1.931 1.206,2.454c0.522,0.339 1.757,0.663 3.703,0.973c0.204,0.029 0.77,0.126 1.7,0.291c0.571,0.097 1.099,0.237 1.583,0.421c0.978,0.368 1.714,0.93 2.207,1.685c0.533,0.823 0.799,1.849 0.799,3.079Zm-2.716,-20.523l-6.55,4.735l-0.668,-0.508l0,-0.204l3.18,-4.008l3.719,-0.451l0.319,0.436Z" style="fill:url(#_Linear3);fill-rule:nonzero;"/><path d="M120.295,102.311l-0.16,0.145c-0.987,0.058 -1.554,0.107 -1.699,0.145c-0.281,0.078 -0.445,0.257 -0.494,0.538c-0.126,0.697 -0.189,2.198 -0.189,4.502l0,5.897c0,4.348 0.063,7.18 0.189,8.497l-0.189,0.131c-1.094,-0.184 -1.922,-0.315 -2.483,-0.393c-2.595,-2.914 -7.025,-8.23 -13.29,-15.947l0,9.499c0,2.304 0.063,3.805 0.189,4.502c0.048,0.281 0.213,0.46 0.494,0.538c0.145,0.038 0.711,0.087 1.699,0.145l0.145,0.145l0,0.988l-0.145,0.13c-1.114,-0.058 -2.15,-0.087 -3.108,-0.087c-1.114,0 -2.232,0.029 -3.355,0.087l-0.146,-0.13l0,-0.988l0.146,-0.145c0.987,-0.058 1.554,-0.107 1.699,-0.145c0.281,-0.078 0.445,-0.257 0.494,-0.538c0.126,-0.697 0.189,-2.198 0.189,-4.502l0,-7.684c0,-2.304 -0.063,-3.805 -0.189,-4.502c-0.049,-0.281 -0.213,-0.46 -0.494,-0.538c-0.145,-0.038 -0.712,-0.087 -1.699,-0.145l-0.146,-0.145l0,-0.988l0.146,-0.131c0.92,0.059 1.796,0.088 2.629,0.088c1.307,0 2.391,-0.029 3.253,-0.088c3.486,4.648 7.582,9.63 12.288,14.946l0,-8.497c0,-2.304 -0.063,-3.805 -0.189,-4.502c-0.049,-0.281 -0.213,-0.46 -0.494,-0.538c-0.145,-0.038 -0.712,-0.087 -1.699,-0.145l-0.146,-0.145l0,-0.988l0.146,-0.131c1.084,0.059 2.115,0.088 3.093,0.088c1.249,0 2.373,-0.029 3.37,-0.088l0.145,0.131l0,0.988Z" style="fill:url(#_Linear4);fill-rule:nonzero;"/><path d="M132.843,121.628l-0.131,0.145c-0.968,-0.058 -2.464,-0.087 -4.488,-0.087c-2.014,0 -3.505,0.029 -4.473,0.087l-0.131,-0.145l0,-0.973l0.145,-0.145c0.988,-0.058 1.554,-0.107 1.7,-0.145c0.28,-0.078 0.445,-0.257 0.493,-0.538c0.126,-0.697 0.189,-2.198 0.189,-4.502l0,-7.684c0,-2.304 -0.063,-3.805 -0.189,-4.502c-0.048,-0.281 -0.213,-0.46 -0.493,-0.538c-0.146,-0.038 -0.712,-0.087 -1.7,-0.145l-0.145,-0.145l0,-0.988l0.145,-0.131c0.93,0.059 2.421,0.088 4.474,0.088c2.043,0 3.529,-0.029 4.459,-0.088l0.145,0.131l0,0.988l-0.145,0.145c-0.988,0.058 -1.554,0.107 -1.7,0.145c-0.28,0.078 -0.445,0.257 -0.493,0.538c-0.126,0.697 -0.189,2.198 -0.189,4.502l0,7.684c0,2.304 0.063,3.805 0.189,4.502c0.048,0.281 0.213,0.46 0.493,0.538c0.146,0.038 0.712,0.087 1.7,0.145l0.145,0.145l0,0.973Z" style="fill:url(#_Linear5);fill-rule:nonzero;"/><path d="M152.13,116.835c-0.213,1.414 -0.319,3.012 -0.319,4.793l-0.146,0.145l-10.559,-0.087c-1.762,0 -3.006,0.029 -3.733,0.087l-0.145,-0.145l0,-0.407l0.073,-0.174c0.716,-0.455 1.104,-0.741 1.162,-0.857c0.087,-0.184 0.14,-0.828 0.16,-1.931l0.043,-3.254l0,-7.364c0,-2.304 -0.063,-3.805 -0.189,-4.502c-0.048,-0.281 -0.213,-0.46 -0.494,-0.538c-0.145,-0.038 -0.711,-0.087 -1.699,-0.145l-0.145,-0.145l0,-0.988l0.145,-0.131c0.978,0.059 2.489,0.088 4.532,0.088c1.82,0 5.282,-0.029 10.385,-0.088l0.159,0.117l-0.188,1.612c-0.059,0.513 -0.102,0.949 -0.131,1.307l-0.102,1.351l-0.145,0.16l-0.842,0l-0.146,-0.146c-0.009,-1.317 -0.087,-2.067 -0.232,-2.251c-0.107,-0.136 -0.627,-0.242 -1.561,-0.32c-0.935,-0.077 -1.756,-0.116 -2.462,-0.116c-0.843,0 -1.695,0.034 -2.557,0.102c-0.106,1.017 -0.159,2.426 -0.159,4.227l0,3.006c0.765,0.048 1.384,0.073 1.859,0.073l1.902,-0.015c0.891,-0.01 1.395,-0.082 1.511,-0.218c0.155,-0.174 0.257,-0.828 0.305,-1.96l0.145,-0.146l0.901,0l0.145,0.146c-0.039,1.084 -0.058,2.077 -0.058,2.977c0,0.978 0.019,2.048 0.058,3.21l-0.145,0.131l-0.973,0l-0.146,-0.146c0,-1.113 -0.077,-1.774 -0.232,-1.982c-0.155,-0.208 -0.625,-0.346 -1.409,-0.414c-0.591,-0.049 -1.22,-0.073 -1.888,-0.073c-0.707,0 -1.365,0.024 -1.975,0.073l0,4.43c0,1.268 0.024,2.498 0.072,3.689l1.976,0c2.827,0 4.56,-0.111 5.199,-0.334c0.107,-0.039 0.184,-0.092 0.233,-0.16c0.096,-0.135 0.188,-0.426 0.276,-0.871l0.348,-1.801l0.145,-0.16l0.886,0l0.16,0.145Z" style="fill:url(#_Linear6);fill-rule:nonzero;"/><path d="M175.237,121.628l-0.145,0.145c-0.068,0 -0.252,-0.004 -0.552,-0.014c-1.327,-0.049 -2.154,-0.073 -2.484,-0.073c-0.493,0 -1.278,0.029 -2.353,0.087c-0.038,-0.232 -0.222,-0.619 -0.551,-1.162l-3.603,-6.013l-1.612,-2.454c-0.203,-0.3 -0.489,-0.596 -0.857,-0.886l0.16,-0.494c0.223,0.01 0.387,0.014 0.494,0.014c0.949,0 1.694,-0.15 2.237,-0.45c0.494,-0.271 0.949,-0.745 1.365,-1.423c0.416,-0.678 0.625,-1.486 0.625,-2.426c0,-1.636 -0.611,-2.74 -1.831,-3.311c-0.581,-0.271 -1.428,-0.407 -2.541,-0.407c-0.484,0 -0.949,0.039 -1.395,0.116c-0.096,0.949 -0.145,2.566 -0.145,4.851l0,7.597c0,2.304 0.063,3.805 0.189,4.502c0.048,0.281 0.213,0.46 0.494,0.538c0.145,0.038 0.711,0.087 1.699,0.145l0.145,0.145l0,0.973l-0.13,0.145c-0.969,-0.058 -2.46,-0.087 -4.474,-0.087c-2.082,0 -3.573,0.029 -4.473,0.087l-0.146,-0.13l0,-0.988l0.146,-0.145c0.987,-0.058 1.554,-0.107 1.699,-0.145c0.281,-0.078 0.445,-0.257 0.494,-0.538c0.126,-0.697 0.189,-2.198 0.189,-4.502l0,-7.684c0,-2.304 -0.063,-3.805 -0.189,-4.502c-0.049,-0.281 -0.213,-0.46 -0.494,-0.538c-0.145,-0.038 -0.712,-0.087 -1.699,-0.145l-0.146,-0.145l0,-0.988l0.146,-0.131c0.949,0.059 2.44,0.088 4.473,0.088c1.181,0 2.14,-0.015 2.876,-0.044c1.462,-0.058 2.556,-0.087 3.282,-0.087c1.676,0 2.905,0.15 3.69,0.45c1.055,0.407 1.762,1.094 2.12,2.063c0.174,0.474 0.262,1.036 0.262,1.684c0,2.634 -1.482,4.503 -4.445,5.607c0.484,0.813 0.998,1.636 1.54,2.469l2.236,3.442c1.317,2.034 2.194,3.191 2.629,3.471c0.223,0.146 0.533,0.218 0.93,0.218l0.145,0.146l0,0.929Z" style="fill:url(#_Linear7);fill-rule:nonzero;"/><path d="M195.454,116.646c-0.203,1.763 -0.358,3.428 -0.465,4.997l-0.145,0.13c-3.98,-0.077 -7.001,-0.116 -9.063,-0.116c-1.511,0 -4.188,0.039 -8.032,0.116l-0.145,-0.13l0,-1.017c0.716,-0.901 1.81,-2.397 3.282,-4.488l2.121,-3.021l2.716,-3.994c0.9,-1.317 2.246,-3.355 4.037,-6.115l-3.645,0.014c-2.818,0.01 -4.44,0.078 -4.866,0.204c-0.252,0.068 -0.426,0.261 -0.523,0.581c-0.038,0.126 -0.121,0.576 -0.247,1.351l-0.116,0.726l-0.16,0.145l-0.886,0l-0.145,-0.174c0.068,-1.027 0.102,-1.951 0.102,-2.774c0,-0.262 -0.01,-0.843 -0.029,-1.743l0.145,-0.146c1.317,0.059 4.251,0.088 8.802,0.088c1.075,0 3.413,-0.029 7.015,-0.088l0.145,0.146l0,0.871l-1.191,1.67c-1.249,1.724 -2.324,3.244 -3.224,4.561l-4.299,6.304c-0.485,0.706 -1.613,2.44 -3.385,5.199c0.514,0.02 1.293,0.029 2.339,0.029c4.909,0 7.523,-0.135 7.843,-0.406c0.174,-0.146 0.397,-0.891 0.668,-2.237c0.058,-0.281 0.111,-0.513 0.16,-0.697l0.16,-0.145l0.871,0l0.16,0.159Z" style="fill:url(#_Linear8);fill-rule:nonzero;"/><path d="M50.115,134.882l0.159,0.16c-0.106,1.064 -0.159,2.92 -0.159,5.569l-0.142,0.141l-0.834,0l-0.142,-0.159l-0.195,-1.632c-0.094,-0.875 -0.168,-1.41 -0.221,-1.605c-0.054,-0.195 -0.139,-0.337 -0.257,-0.426c-0.119,-0.088 -0.503,-0.162 -1.153,-0.221c-0.651,-0.059 -1.378,-0.089 -2.182,-0.089l-3.352,0c-0.094,2.672 -0.142,4.215 -0.142,4.629l0,10.34l0.036,3.458c0.012,1.336 0.044,2.202 0.097,2.598c0.054,0.396 0.136,0.657 0.249,0.781c0.112,0.124 0.328,0.23 0.647,0.319c0.319,0.089 1.111,0.157 2.377,0.204l0.124,0.106l0,0.887l-0.124,0.142c-3.027,-0.095 -4.718,-0.142 -5.073,-0.142c-0.378,0 -2.063,0.047 -5.054,0.142l-0.142,-0.142l0,-0.887l0.142,-0.106c1.111,-0.047 1.847,-0.107 2.208,-0.177c0.36,-0.071 0.603,-0.163 0.727,-0.275c0.124,-0.113 0.228,-0.352 0.31,-0.719c0.083,-0.366 0.124,-1.182 0.124,-2.447l0.036,-3.742l0,-10.34c0,-0.189 -0.047,-1.732 -0.142,-4.629l-2.643,0c-1.087,0 -2.027,0.024 -2.819,0.071c-0.793,0.047 -1.251,0.169 -1.375,0.364c-0.124,0.195 -0.239,0.83 -0.346,1.906l-0.177,1.632l-0.16,0.159l-0.816,0l-0.141,-0.141c-0.024,-2.85 -0.077,-4.706 -0.16,-5.569l0.16,-0.16c2.057,0.095 5.48,0.142 10.268,0.142c4.883,0 8.312,-0.047 10.287,-0.142Z" style="fill:url(#_Linear9);fill-rule:nonzero;"/><path d="M51.602,160.084l-0.159,-0.142l0,-0.922l0.159,-0.142c0.864,-0.012 1.419,-0.056 1.668,-0.133c0.248,-0.077 0.47,-0.231 0.665,-0.461c0.195,-0.231 0.588,-0.984 1.179,-2.261l1.862,-4.044l4.824,-10.925c0.911,-2.14 1.815,-4.28 2.714,-6.42l1.153,0l7.573,17.806l1.01,2.377c0.296,0.674 0.636,1.407 1.02,2.199c0.385,0.792 0.651,1.259 0.798,1.401c0.148,0.142 0.331,0.251 0.55,0.328c0.219,0.077 0.707,0.121 1.463,0.133l0.142,0.142l0,0.922l-0.142,0.142c-1.253,-0.106 -2.382,-0.16 -3.387,-0.16c-1.963,0.059 -3.926,0.113 -5.888,0.16l-0.142,-0.142l0,-0.922l0.142,-0.142c1.324,-0.024 2.152,-0.08 2.483,-0.169c0.331,-0.088 0.496,-0.292 0.496,-0.611c0,-0.261 -0.082,-0.603 -0.248,-1.029l-2.181,-5.409l-10.269,0l-1.933,4.54c-0.343,0.816 -0.515,1.413 -0.515,1.791c0,0.296 0.16,0.515 0.479,0.656c0.319,0.142 1.123,0.219 2.412,0.231l0.16,0.142l0,0.922l-0.142,0.142c-1.525,-0.095 -2.861,-0.142 -4.008,-0.142c-1.301,0 -2.613,0.047 -3.938,0.142Zm8.088,-9.95l8.974,0l-4.452,-10.694l-4.522,10.694Z" style="fill:url(#_Linear10);fill-rule:nonzero;"/><path d="M82.3,134.882c2.98,0.095 4.877,0.142 5.693,0.142c1.112,0 2.359,-0.03 3.742,-0.089c1.467,-0.047 2.371,-0.071 2.714,-0.071c1.655,0 3.024,0.172 4.106,0.515c1.082,0.342 1.977,0.969 2.687,1.88c0.709,0.91 1.064,2.01 1.064,3.298c0,1.064 -0.249,2.093 -0.745,3.086c-0.497,0.993 -1.188,1.839 -2.075,2.536c-0.887,0.698 -1.786,1.198 -2.696,1.499c-0.91,0.302 -1.856,0.452 -2.838,0.452c-0.733,0 -1.549,-0.082 -2.447,-0.248l-0.302,-1.082l0.16,-0.177c0.887,0.201 1.608,0.301 2.164,0.301c1.549,0 2.793,-0.511 3.733,-1.534c0.94,-1.023 1.41,-2.332 1.41,-3.928c0,-1.608 -0.488,-2.891 -1.463,-3.849c-0.976,-0.957 -2.451,-1.436 -4.425,-1.436c-1.076,0 -2.258,0.201 -3.547,0.603c-0.107,0.91 -0.16,3.109 -0.16,6.597l0,8.212l0.018,3.458c0.012,1.336 0.047,2.199 0.106,2.589c0.059,0.391 0.145,0.651 0.257,0.781c0.113,0.13 0.329,0.239 0.648,0.328c0.319,0.089 1.105,0.157 2.359,0.204l0.141,0.106l0,0.887l-0.141,0.142c-3.015,-0.095 -4.712,-0.142 -5.09,-0.142c-0.402,0 -2.093,0.047 -5.073,0.142l-0.142,-0.142l0,-0.887l0.142,-0.106c1.1,-0.047 1.833,-0.107 2.199,-0.177c0.367,-0.071 0.612,-0.163 0.736,-0.275c0.125,-0.113 0.225,-0.352 0.302,-0.719c0.077,-0.366 0.121,-1.182 0.133,-2.447l0.018,-3.742l0,-8.212l-0.036,-3.458c-0.012,-1.348 -0.044,-2.217 -0.097,-2.607c-0.054,-0.39 -0.136,-0.651 -0.249,-0.781c-0.112,-0.13 -0.328,-0.236 -0.647,-0.319c-0.319,-0.083 -1.105,-0.148 -2.359,-0.195l-0.142,-0.124l0,-0.887l0.142,-0.124Z" style="fill:url(#_Linear11);fill-rule:nonzero;"/><path d="M106.418,134.882l2.217,0.071c1.454,0.047 2.406,0.071 2.855,0.071c0.402,0 2.099,-0.047 5.091,-0.142l0.141,0.124l0,0.887l-0.141,0.124c-0.816,0.024 -1.446,0.059 -1.889,0.106c-0.444,0.048 -0.766,0.136 -0.967,0.267c-0.201,0.13 -0.334,0.434 -0.399,0.913c-0.065,0.479 -0.097,1.144 -0.097,1.995l-0.036,4.079l0,8.212l0.018,3.458c0.012,1.336 0.047,2.199 0.106,2.589c0.059,0.391 0.145,0.651 0.257,0.781c0.113,0.13 0.328,0.239 0.648,0.328c0.319,0.089 1.105,0.157 2.359,0.204l0.141,0.106l0,0.887l-0.141,0.142c-0.06,0 -1.1,-0.036 -3.122,-0.106c-0.839,-0.024 -1.496,-0.036 -1.969,-0.036c-0.366,0 -2.057,0.047 -5.072,0.142l-0.142,-0.142l0,-0.887l0.142,-0.106c1.1,-0.047 1.833,-0.107 2.199,-0.177c0.367,-0.071 0.612,-0.163 0.736,-0.275c0.125,-0.113 0.225,-0.352 0.302,-0.719c0.077,-0.366 0.121,-1.182 0.133,-2.447l0.018,-3.742l0,-8.212l-0.036,-3.458c-0.012,-1.348 -0.044,-2.217 -0.097,-2.607c-0.054,-0.39 -0.136,-0.651 -0.249,-0.781c-0.112,-0.13 -0.328,-0.236 -0.647,-0.319c-0.319,-0.083 -1.106,-0.148 -2.359,-0.195l-0.142,-0.124l0,-0.887l0.142,-0.124Z" style="fill:url(#_Linear12);fill-rule:nonzero;"/><path d="M144.529,156.945l-0.674,1.649c-2.624,1.336 -5.427,2.004 -8.406,2.004c-4.268,0 -7.736,-1.212 -10.402,-3.635c-2.666,-2.424 -3.999,-5.593 -3.999,-9.507c0,-2.695 0.665,-5.051 1.995,-7.067c1.33,-2.016 3.086,-3.524 5.267,-4.523c2.182,-0.999 4.632,-1.498 7.352,-1.498c1.572,0 3.127,0.165 4.664,0.496c1.537,0.331 2.82,0.727 3.849,1.189l0.124,0.177c-0.272,0.662 -0.526,2.3 -0.763,4.913l-0.124,0.141l-0.834,0l-0.141,-0.141l-0.178,-3.015c-0.863,-0.686 -1.906,-1.221 -3.13,-1.605c-1.224,-0.385 -2.498,-0.577 -3.822,-0.577c-1.998,0 -3.79,0.429 -5.374,1.286c-1.584,0.857 -2.814,2.099 -3.689,3.724c-0.875,1.626 -1.312,3.615 -1.312,5.968c0,2.365 0.514,4.44 1.543,6.225c1.028,1.786 2.432,3.157 4.212,4.115c1.779,0.958 3.857,1.437 6.234,1.437c1.052,0 2.063,-0.101 3.033,-0.302c0.969,-0.201 1.776,-0.449 2.42,-0.745c0.645,-0.295 1.263,-0.656 1.854,-1.082l0.301,0.373Z" style="fill:url(#_Linear13);fill-rule:nonzero;"/><path d="M149.014,135.006l0.142,-0.124c4.056,0.071 6.651,0.106 7.786,0.106c3.878,0 7.331,-0.035 10.357,-0.106l0.089,0.124c-0.296,1.135 -0.514,2.915 -0.656,5.339l-0.107,0.141l-0.869,0l-0.159,-0.141c0.012,-0.107 0.018,-0.201 0.018,-0.284c0,-1.005 -0.077,-1.963 -0.231,-2.873c-0.745,-0.331 -1.777,-0.547 -3.095,-0.648c-1.318,-0.1 -2.308,-0.15 -2.971,-0.15c-0.934,0 -2.128,0.065 -3.582,0.195l-0.071,2.837l-0.053,3.246l-0.053,3.6c1.277,0.071 2.453,0.107 3.529,0.107c1.088,0 1.998,-0.036 2.731,-0.107c0.733,-0.071 1.162,-0.145 1.286,-0.222c0.124,-0.076 0.219,-0.224 0.284,-0.443c0.065,-0.219 0.121,-0.606 0.168,-1.162l0.071,-1.099l0.142,-0.142l0.816,0l0.142,0.142c-0.024,1.289 -0.053,2.583 -0.089,3.884l0.089,3.99l-0.142,0.142l-0.816,0l-0.142,-0.142l-0.124,-1.064c-0.106,-0.827 -0.183,-1.321 -0.231,-1.481c-0.047,-0.159 -0.156,-0.298 -0.328,-0.417c-0.171,-0.118 -0.611,-0.212 -1.321,-0.283c-0.709,-0.071 -1.685,-0.107 -2.926,-0.107c-0.686,0 -1.732,0.03 -3.139,0.089c-0.06,0.993 -0.089,2.648 -0.089,4.966c0,2.483 0.029,4.31 0.089,5.48l3.263,0c2.873,0 4.67,-0.035 5.391,-0.106c0.722,-0.071 1.407,-0.243 2.058,-0.515c0.106,-0.272 0.281,-0.901 0.523,-1.888c0.242,-0.988 0.381,-1.605 0.417,-1.854l0.177,-0.124l0.851,0l0.142,0.124c-0.106,0.509 -0.21,1.395 -0.31,2.661c-0.101,1.265 -0.151,2.346 -0.151,3.245l-0.124,0.142c-2.258,-0.071 -5.214,-0.106 -8.868,-0.106l-4.824,-0.036c-1.123,0 -2.293,0.047 -3.511,0.142l-0.142,-0.142l0,-0.585l0.142,-0.178c0.697,-0.354 1.096,-0.576 1.197,-0.665c0.1,-0.088 0.183,-1.123 0.248,-3.103c0.065,-1.981 0.098,-3.491 0.098,-4.532l0,-6.509l-0.018,-4.025c0,-0.875 -0.012,-1.588 -0.036,-2.138c-0.023,-0.549 -0.065,-0.943 -0.124,-1.179c-0.059,-0.236 -0.127,-0.402 -0.204,-0.497c-0.076,-0.094 -0.201,-0.174 -0.372,-0.239c-0.172,-0.065 -0.464,-0.121 -0.878,-0.169l-1.348,-0.106l-0.142,-0.124l0,-0.887Z" style="fill:url(#_Linear14);fill-rule:nonzero;"/><path d="M172.831,135.006l0.142,-0.124c2.163,0.095 3.848,0.142 5.054,0.142c1.336,0 3.139,-0.041 5.409,-0.124c0.84,-0.024 1.449,-0.036 1.827,-0.036c2.992,0 5.019,0.544 6.083,1.632c1.065,1.088 1.597,2.376 1.597,3.866c0,0.993 -0.261,1.969 -0.781,2.927c-0.52,0.957 -1.289,1.776 -2.305,2.456c-1.017,0.68 -2.418,1.191 -4.204,1.534c0.331,0.461 0.929,1.259 1.792,2.394l2.518,3.335c0.816,1.099 1.691,2.261 2.625,3.485c0.934,1.223 1.537,1.915 1.809,2.075c0.272,0.159 0.505,0.257 0.7,0.292c0.196,0.036 0.506,0.053 0.932,0.053l0.141,0.142l0,0.834l-0.159,0.159c-0.568,-0.07 -1.242,-0.106 -2.022,-0.106c-0.839,0 -1.756,0.036 -2.749,0.106c-0.816,-0.993 -2.099,-2.713 -3.849,-5.16c-2.033,-2.838 -4.114,-5.469 -6.242,-7.893l0.177,-0.55c0.615,0.036 1.094,0.054 1.437,0.054c2.045,0 3.647,-0.491 4.806,-1.472c1.159,-0.982 1.738,-2.341 1.738,-4.079c0,-1.561 -0.52,-2.741 -1.561,-3.539c-1.04,-0.798 -2.447,-1.197 -4.221,-1.197c-1.241,0 -2.412,0.172 -3.511,0.514c-0.178,0.261 -0.267,2.478 -0.267,6.651l0,8.212l0.018,3.458c0.012,1.336 0.048,2.199 0.107,2.589c0.059,0.391 0.144,0.651 0.257,0.781c0.112,0.13 0.328,0.239 0.647,0.328c0.319,0.089 1.106,0.157 2.359,0.204l0.142,0.106l0,0.887l-0.142,0.142c-0.059,0 -1.1,-0.036 -3.121,-0.106c-0.84,-0.024 -1.496,-0.036 -1.969,-0.036c-0.367,0 -2.057,0.047 -5.072,0.142l-0.142,-0.142l0,-0.887l0.142,-0.106c1.099,-0.047 1.832,-0.107 2.199,-0.177c0.366,-0.071 0.612,-0.163 0.736,-0.275c0.124,-0.113 0.224,-0.352 0.301,-0.719c0.077,-0.366 0.121,-1.182 0.133,-2.447l0.018,-3.742l0,-8.212l-0.035,-3.458c-0.012,-1.348 -0.045,-2.217 -0.098,-2.607c-0.053,-0.39 -0.136,-0.651 -0.248,-0.781c-0.113,-0.13 -0.328,-0.236 -0.648,-0.319c-0.319,-0.083 -1.105,-0.148 -2.358,-0.195l-0.142,-0.124l0,-0.887Z" style="fill:url(#_Linear15);fill-rule:nonzero;"/></g><path d="M132.385,54.437c0,0 1.746,2.747 4.252,3.98c11.694,5.757 26.81,2.573 35.718,3.467c4.763,0.479 9.458,1.549 13.927,3.381c15.834,6.612 25.158,24.461 24.191,44.841c0,0 -0.071,-0.97 -0.143,-1.937c-0.951,-12.056 -4.516,-24.467 -14.765,-32.976c-9.405,-7.809 -22.543,-9.843 -34.855,-10.458c-1.596,-0.093 -3.191,-0.215 -4.782,-0.371c-7.189,-0.705 -14.845,-1.79 -20.463,-5.923c-1.437,-1.056 -2.889,-2.52 -3.083,-4.003c0,0 -0.01,-0.06 0.003,-0.001Z" style="fill:#fff;"/><path d="M85.892,54.438c-0.469,3.58 -5.709,6.005 -10.541,7.487c-12.975,3.979 -27.33,1.708 -40.596,6.522c-15.56,5.646 -25.882,21.353 -26.935,41.659l-0.01,0.182c-0.651,-13.053 2.109,-26.825 11.538,-36.515c10.007,-10.285 25.695,-12.268 39.507,-12.082c7.963,0.088 16.346,0.219 23.312,-3.547c1.618,-0.875 3.292,-2.102 3.714,-3.676c0.028,-0.105 0.012,-0.042 0.011,-0.03Z" style="fill:#fff;"/><path d="M210.473,151.913c0.784,16.539 -4.357,34.019 -20.18,42.898c-11.157,6.26 -25.551,5.198 -36.751,5.596c-7.12,0.253 -15.27,0.617 -19.903,5.245c-0.671,0.67 -1.294,2.105 -1.236,1.799c0.835,-3.812 5.963,-5.96 10.52,-7.357c12.975,-3.979 27.329,-1.708 40.595,-6.522c15.561,-5.646 25.883,-21.353 26.936,-41.66c0,0 -0.003,-0.434 0.019,0.001Z" style="fill:#fff;"/><path d="M7.82,151.912c0.67,12.929 4.292,26.115 14.888,34.913c9.406,7.81 22.544,9.844 34.855,10.459c1.596,0.093 3.191,0.215 4.783,0.371c7.189,0.704 14.845,1.79 20.463,5.923c1.436,1.056 2.889,2.52 3.083,4.003c0,0 -1.806,-2.812 -4.443,-4.07c-10.628,-5.07 -24.113,-2.632 -32.854,-3.162c-5.634,-0.341 -11.241,-1.397 -16.604,-3.595c-15.834,-6.612 -25.157,-24.461 -24.19,-44.841c0,0 -0.005,-0.435 0.019,-0.001Z" style="fill:#fff;"/><path d="M111.383,230.837c0,0 24.636,-35.013 25.869,-37.149c1.233,-2.136 1.19,-4.474 -1.081,-5.785c-2.271,-1.311 -4.316,-0.18 -5.549,1.956c-1.234,2.137 -19.239,40.978 -19.239,40.978Zm20.229,-34.809c0.963,0.556 2.401,-0.13 3.209,-1.53c0.808,-1.4 0.683,-2.988 -0.28,-3.543c-0.963,-0.556 -2.401,0.129 -3.209,1.529c-0.808,1.4 -0.683,2.988 0.28,3.544Z" style="fill:#fff;"/><path d="M107.334,230.837c0,0 -24.636,-35.013 -25.869,-37.149c-1.233,-2.136 -1.19,-4.474 1.081,-5.785c2.271,-1.311 4.316,-0.18 5.55,1.956c1.233,2.137 19.238,40.978 19.238,40.978Zm-20.229,-34.809c-0.963,0.556 -2.401,-0.13 -3.209,-1.53c-0.808,-1.4 -0.683,-2.988 0.28,-3.543c0.963,-0.556 2.401,0.129 3.209,1.529c0.808,1.4 0.683,2.988 -0.28,3.544Z" style="fill:#fff;"/><path d="M140.228,78.466l-29.274,-31.524l5.313,-5.314l23.961,36.838Zm-31.331,-32.908l-30.56,32.908l25.448,-39.124c0,0 -14.261,-15.498 -14.261,-15.498l3.948,-4.119c0,0 2.851,4.067 5.398,7.699c2.449,3.492 6.458,5.557 10.723,5.522c0.025,0 0.05,0 0.075,0c4.069,-0.034 7.878,-2.004 10.256,-5.305c2.653,-3.683 5.727,-7.95 5.727,-7.95l3.442,4.213l-14.268,15.506l0.025,0.039l-5.953,6.109Zm0.416,-9.731c0.995,0 1.803,0.808 1.803,1.804c0,0.995 -0.808,1.804 -1.803,1.804c-0.996,0 -1.804,-0.809 -1.804,-1.804c0,-0.996 0.808,-1.804 1.804,-1.804Z" style="fill:#fff;"/><path d="M85.151,5.042l0.131,0.003l0.131,0.004l0.135,0.007l0.13,0.008l0.13,0.009l0.133,0.012l0.134,0.014l0.128,0.016l0.125,0.016l0.133,0.019l0.128,0.021l0.128,0.022l0.127,0.024l0.126,0.025l0.127,0.028l0.126,0.028l0.126,0.031l0.124,0.032l0.124,0.034l0.124,0.035l0.123,0.038l0.121,0.038l0.122,0.04l0.123,0.043l0.119,0.043l0.115,0.043l0.122,0.047l0.119,0.049l0.116,0.048l0.117,0.052l0.115,0.052l0.116,0.054l0.115,0.056l0.112,0.055l0.111,0.058l0.114,0.06l0.112,0.062l0.109,0.062l0.111,0.064l0.107,0.064l0.107,0.066l0.108,0.069l0.105,0.068l0.104,0.07l0.104,0.071l0.106,0.075l0.104,0.075l0.098,0.074l0.099,0.075l0.1,0.078l0.101,0.081l0.099,0.082l0.094,0.079l0.096,0.083l0.094,0.084l0.095,0.086l0.093,0.087l0.09,0.086l0.093,0.09l0.086,0.087l0.09,0.091l0.089,0.094l0.086,0.092l0.085,0.094l0.083,0.093l0.086,0.099l0.082,0.097l0.08,0.097l0.079,0.098l0.078,0.099l0.079,0.101l0.08,0.107l0.075,0.104l0.072,0.1l0.072,0.104l0.072,0.105l0.074,0.111l0.069,0.108l0.069,0.108l0.066,0.108l0.066,0.111l0.068,0.116l0.062,0.112l0.061,0.11l0.061,0.112l0.06,0.115l0.06,0.119l0.056,0.115l0.057,0.117l0.056,0.121l0.052,0.116l0.052,0.118l0.053,0.124l0.096,0.238l0.05,0.132l0.087,0.241l0.044,0.129l0.041,0.123l0.039,0.122l0.04,0.13l0.038,0.13l0.035,0.125l0.035,0.13l0.033,0.132l0.031,0.126l0.031,0.133l0.029,0.134l0.026,0.126l0.026,0.135l0.025,0.135l0.021,0.128l0.022,0.135l0.02,0.137l0.019,0.136l0.016,0.136l0.015,0.131l0.014,0.137l0.013,0.144l0.009,0.138l0.009,0.132l0.007,0.139l0.006,0.139l0.004,0.139l0.002,0.14l0.001,0.139l-0.001,0.14l-0.002,0.14l-0.004,0.139l-0.006,0.139l-0.007,0.139l-0.009,0.132l-0.009,0.138l-0.013,0.143l-0.014,0.137l-0.015,0.132l-0.016,0.136l-0.019,0.136l-0.02,0.136l-0.022,0.135l-0.021,0.129l-0.025,0.135l-0.026,0.134l-0.026,0.127l-0.029,0.133l-0.031,0.133l-0.031,0.126l-0.033,0.132l-0.035,0.131l-0.035,0.125l-0.038,0.13l-0.04,0.13l-0.039,0.122l-0.041,0.122l-0.044,0.129l-0.043,0.121l-0.044,0.12l-0.05,0.133l-0.048,0.118l-0.048,0.12l-0.053,0.123l-0.052,0.118l-0.052,0.117l-0.056,0.121l-0.057,0.117l-0.056,0.114l-0.06,0.12l-0.06,0.114l-0.061,0.113l-0.061,0.11l-0.062,0.111l-0.068,0.117l-0.066,0.11l-0.066,0.108l-0.069,0.108l-0.069,0.108l-0.074,0.112l-0.072,0.105l-0.072,0.104l-0.072,0.1l-0.075,0.103l-0.08,0.107l-0.077,0.1l-0.08,0.101l-0.08,0.099l-0.079,0.095l-0.082,0.098l-0.086,0.098l-0.083,0.094l-0.085,0.094l-0.086,0.092l-0.089,0.094l-0.09,0.091l-0.086,0.087l-0.093,0.09l-0.09,0.086l-0.093,0.087l-0.095,0.086l-0.094,0.083l-0.096,0.084l-0.094,0.078l-0.099,0.083l-0.101,0.08l-0.1,0.078l-0.099,0.076l-0.098,0.073l-0.104,0.076l-0.106,0.074l-0.104,0.072l-0.104,0.069l-0.105,0.069l-0.108,0.069l-0.107,0.065l-0.107,0.065l-0.111,0.064l-0.109,0.062l-0.112,0.061l-0.114,0.061l-0.111,0.057l-0.112,0.056l-0.115,0.056l-0.116,0.054l-0.115,0.052l-0.117,0.051l-0.116,0.049l-0.119,0.048l-0.122,0.047l-0.115,0.044l-0.119,0.043l-0.123,0.042l-0.122,0.041l-0.121,0.038l-0.123,0.037l-0.124,0.036l-0.124,0.034l-0.124,0.031l-0.126,0.031l-0.126,0.029l-0.127,0.028l-0.126,0.025l-0.127,0.024l-0.128,0.022l-0.128,0.02l-0.133,0.019l-0.125,0.017l-0.128,0.015l-0.134,0.014l-0.133,0.012l-0.13,0.01l-0.13,0.008l-0.135,0.006l-0.131,0.005l-0.131,0.002l-0.134,0.001l-0.135,-0.001l-0.132,-0.002l-0.131,-0.005l-0.134,-0.006l-0.13,-0.008l-0.13,-0.01l-0.134,-0.012l-0.133,-0.014l-0.128,-0.015l-0.126,-0.017l-0.133,-0.019l-0.128,-0.02l-0.128,-0.022l-0.127,-0.024l-0.125,-0.025l-0.127,-0.028l-0.128,-0.029l-0.125,-0.031l-0.121,-0.031l-0.125,-0.034l-0.125,-0.036l-0.123,-0.037l-0.124,-0.039l-0.119,-0.04l-0.122,-0.041l-0.12,-0.044l-0.115,-0.044l-0.122,-0.047l-0.119,-0.048l-0.116,-0.049l-0.118,-0.051l-0.114,-0.052l-0.116,-0.054l-0.116,-0.056l-0.111,-0.056l-0.114,-0.059l-0.11,-0.059l-0.111,-0.06l-0.111,-0.063l-0.111,-0.064l-0.107,-0.065l-0.107,-0.065l-0.109,-0.069l-0.104,-0.069l-0.105,-0.069l-0.104,-0.072l-0.105,-0.074l-0.104,-0.076l-0.098,-0.073l-0.103,-0.078l-0.099,-0.078l-0.094,-0.076l-0.101,-0.082l-0.099,-0.084l-0.092,-0.081l-0.093,-0.08l-0.097,-0.089l-0.093,-0.087l-0.091,-0.086l-0.092,-0.09l-0.087,-0.087l-0.089,-0.091l-0.089,-0.094l-0.086,-0.092l-0.086,-0.094l-0.083,-0.094l-0.086,-0.098l-0.081,-0.098l-0.079,-0.095l-0.081,-0.099l-0.079,-0.101l-0.077,-0.1l-0.08,-0.107l-0.075,-0.103l-0.072,-0.1l-0.073,-0.104l-0.074,-0.109l-0.071,-0.108l-0.067,-0.103l-0.071,-0.113l-0.066,-0.108l-0.067,-0.11l-0.067,-0.117l-0.063,-0.111l-0.061,-0.11l-0.06,-0.113l-0.06,-0.114l-0.061,-0.12l-0.056,-0.114l-0.056,-0.117l-0.056,-0.121l-0.053,-0.117l-0.051,-0.118l-0.053,-0.123l-0.051,-0.125l-0.044,-0.113l-0.05,-0.127l-0.045,-0.126l-0.044,-0.121l-0.044,-0.129l-0.04,-0.122l-0.039,-0.122l-0.04,-0.13l-0.038,-0.13l-0.035,-0.125l-0.035,-0.131l-0.034,-0.132l-0.03,-0.126l-0.031,-0.133l-0.029,-0.133l-0.026,-0.127l-0.027,-0.134l-0.024,-0.135l-0.022,-0.129l-0.022,-0.135l-0.02,-0.136l-0.018,-0.136l-0.017,-0.136l-0.014,-0.132l-0.014,-0.137l-0.013,-0.143l-0.01,-0.138l-0.008,-0.132l-0.008,-0.139l-0.005,-0.139l-0.004,-0.139l-0.003,-0.14l-0.001,-0.14l0.001,-0.139l0.003,-0.14l0.004,-0.139l0.005,-0.139l0.008,-0.139l0.008,-0.132l0.01,-0.138l0.013,-0.144l0.014,-0.137l0.014,-0.131l0.017,-0.136l0.018,-0.136l0.02,-0.137l0.022,-0.135l0.022,-0.128l0.024,-0.135l0.027,-0.135l0.026,-0.126l0.029,-0.134l0.031,-0.133l0.03,-0.126l0.034,-0.132l0.035,-0.13l0.035,-0.125l0.038,-0.13l0.04,-0.13l0.039,-0.122l0.04,-0.123l0.044,-0.129l0.044,-0.12l0.045,-0.126l0.05,-0.127l0.044,-0.113l0.051,-0.125l0.053,-0.124l0.051,-0.118l0.053,-0.116l0.056,-0.121l0.056,-0.117l0.056,-0.115l0.061,-0.119l0.06,-0.115l0.06,-0.112l0.061,-0.11l0.063,-0.112l0.067,-0.116l0.067,-0.111l0.066,-0.108l0.071,-0.112l0.067,-0.104l0.071,-0.107l0.074,-0.109l0.073,-0.104l0.072,-0.1l0.075,-0.104l0.08,-0.107l0.078,-0.101l0.078,-0.099l0.08,-0.098l0.08,-0.097l0.081,-0.097l0.086,-0.099l0.083,-0.093l0.086,-0.094l0.086,-0.092l0.089,-0.094l0.089,-0.091l0.087,-0.087l0.092,-0.09l0.091,-0.086l0.093,-0.087l0.097,-0.089l0.093,-0.081l0.092,-0.08l0.099,-0.084l0.101,-0.083l0.094,-0.075l0.099,-0.078l0.103,-0.078l0.098,-0.074l0.104,-0.075l0.105,-0.075l0.104,-0.071l0.105,-0.07l0.104,-0.068l0.109,-0.069l0.107,-0.066l0.107,-0.064l0.111,-0.064l0.111,-0.064l0.111,-0.06l0.11,-0.059l0.114,-0.059l0.111,-0.055l0.116,-0.056l0.116,-0.054l0.114,-0.052l0.118,-0.052l0.116,-0.048l0.119,-0.049l0.122,-0.047l0.115,-0.043l0.12,-0.044l0.122,-0.042l0.119,-0.039l0.124,-0.039l0.123,-0.038l0.125,-0.036l0.125,-0.033l0.121,-0.031l0.125,-0.031l0.128,-0.029l0.127,-0.028l0.125,-0.025l0.127,-0.024l0.128,-0.022l0.128,-0.021l0.133,-0.019l0.126,-0.016l0.128,-0.016l0.133,-0.014l0.134,-0.012l0.13,-0.009l0.13,-0.008l0.134,-0.007l0.131,-0.004l0.132,-0.003l0.135,-0.001l0.134,0.001Zm-0.225,3l-0.093,0.002l-0.093,0.003l-0.089,0.004l-0.092,0.006l-0.091,0.007l-0.088,0.008l-0.087,0.009l-0.089,0.01l-0.094,0.013l-0.085,0.012l-0.088,0.014l-0.088,0.015l-0.087,0.017l-0.089,0.017l-0.087,0.019l-0.084,0.019l-0.085,0.022l-0.09,0.023l-0.085,0.023l-0.083,0.023l-0.083,0.025l-0.084,0.027l-0.085,0.028l-0.083,0.029l-0.081,0.029l-0.088,0.033l-0.079,0.031l-0.08,0.032l-0.083,0.035l-0.08,0.035l-0.082,0.037l-0.079,0.037l-0.078,0.038l-0.08,0.04l-0.077,0.04l-0.079,0.042l-0.079,0.043l-0.076,0.043l-0.074,0.043l-0.077,0.047l-0.077,0.047l-0.073,0.046l-0.076,0.05l-0.075,0.05l-0.074,0.051l-0.071,0.05l-0.07,0.051l-0.075,0.055l-0.069,0.053l-0.07,0.055l-0.074,0.06l-0.068,0.055l-0.065,0.055l-0.071,0.062l-0.071,0.062l-0.063,0.057l-0.066,0.062l-0.067,0.064l-0.063,0.061l-0.067,0.067l-0.063,0.065l-0.061,0.064l-0.064,0.068l-0.06,0.067l-0.063,0.07l-0.058,0.067l-0.058,0.07l-0.061,0.073l-0.059,0.073l-0.058,0.073l-0.056,0.073l-0.052,0.07l-0.054,0.074l-0.057,0.08l-0.054,0.077l-0.051,0.074l-0.051,0.078l-0.054,0.083l-0.048,0.076l-0.049,0.081l-0.049,0.081l-0.045,0.076l-0.047,0.084l-0.047,0.086l-0.046,0.085l-0.044,0.084l-0.041,0.081l-0.043,0.087l-0.042,0.087l-0.039,0.085l-0.04,0.089l-0.039,0.09l-0.036,0.085l-0.035,0.086l-0.039,0.098l-0.034,0.086l-0.032,0.089l-0.034,0.095l-0.03,0.088l-0.032,0.096l-0.03,0.096l-0.029,0.091l-0.026,0.092l-0.028,0.098l-0.025,0.093l-0.023,0.094l-0.025,0.1l-0.022,0.094l-0.02,0.096l-0.022,0.103l-0.019,0.095l-0.017,0.097l-0.018,0.105l-0.016,0.098l-0.014,0.098l-0.014,0.1l-0.012,0.1l-0.011,0.106l-0.011,0.101l-0.008,0.095l-0.007,0.102l-0.007,0.109l-0.006,0.102l-0.004,0.104l-0.003,0.104l-0.002,0.105l-0.001,0.104l0.001,0.105l0.002,0.105l0.003,0.104l0.004,0.103l0.006,0.103l0.007,0.108l0.007,0.102l0.008,0.096l0.011,0.101l0.011,0.106l0.012,0.1l0.014,0.099l0.014,0.099l0.016,0.098l0.018,0.104l0.017,0.097l0.019,0.096l0.022,0.102l0.02,0.096l0.022,0.095l0.025,0.1l0.023,0.093l0.025,0.093l0.028,0.099l0.026,0.091l0.029,0.091l0.03,0.097l0.032,0.096l0.03,0.088l0.066,0.184l0.034,0.086l0.039,0.098l0.035,0.086l0.036,0.085l0.039,0.09l0.04,0.089l0.039,0.085l0.042,0.086l0.043,0.087l0.041,0.082l0.044,0.084l0.046,0.085l0.047,0.085l0.047,0.084l0.045,0.077l0.049,0.081l0.049,0.081l0.048,0.076l0.054,0.083l0.051,0.077l0.051,0.074l0.054,0.078l0.057,0.08l0.054,0.074l0.052,0.07l0.057,0.074l0.057,0.072l0.058,0.071l0.062,0.075l0.058,0.069l0.058,0.067l0.063,0.07l0.06,0.067l0.064,0.069l0.061,0.064l0.063,0.064l0.067,0.068l0.063,0.061l0.067,0.063l0.066,0.062l0.063,0.057l0.071,0.063l0.071,0.061l0.065,0.055l0.068,0.056l0.074,0.059l0.07,0.056l0.069,0.052l0.075,0.056l0.07,0.051l0.071,0.05l0.074,0.051l0.075,0.05l0.076,0.049l0.073,0.047l0.077,0.047l0.077,0.046l0.074,0.044l0.076,0.043l0.079,0.043l0.079,0.042l0.077,0.04l0.08,0.04l0.078,0.038l0.079,0.036l0.082,0.038l0.08,0.034l0.083,0.035l0.08,0.033l0.079,0.03l0.088,0.033l0.081,0.03l0.083,0.028l0.085,0.029l0.084,0.026l0.083,0.025l0.083,0.024l0.085,0.023l0.09,0.023l0.085,0.021l0.084,0.019l0.087,0.019l0.089,0.018l0.087,0.016l0.088,0.015l0.088,0.015l0.085,0.012l0.094,0.012l0.089,0.011l0.087,0.009l0.088,0.008l0.091,0.007l0.092,0.005l0.089,0.005l0.093,0.003l0.093,0.002l0.091,0l0.089,0l0.094,-0.002l0.093,-0.003l0.089,-0.005l0.091,-0.005l0.092,-0.007l0.088,-0.008l0.086,-0.009l0.09,-0.011l0.094,-0.012l0.085,-0.012l0.088,-0.015l0.088,-0.015l0.087,-0.016l0.088,-0.018l0.087,-0.019l0.086,-0.019l0.086,-0.021l0.087,-0.023l0.084,-0.023l0.084,-0.024l0.084,-0.025l0.085,-0.027l0.085,-0.028l0.079,-0.027l0.084,-0.031l0.088,-0.033l0.078,-0.03l0.081,-0.033l0.083,-0.035l0.079,-0.034l0.082,-0.038l0.079,-0.036l0.078,-0.038l0.08,-0.04l0.08,-0.041l0.077,-0.041l0.076,-0.042l0.078,-0.044l0.075,-0.044l0.077,-0.046l0.077,-0.047l0.073,-0.047l0.075,-0.049l0.076,-0.05l0.074,-0.051l0.071,-0.05l0.07,-0.051l0.074,-0.056l0.073,-0.055l0.071,-0.055l0.067,-0.054l0.068,-0.056l0.071,-0.06l0.068,-0.059l0.067,-0.06l0.067,-0.06l0.066,-0.062l0.067,-0.063l0.062,-0.061l0.067,-0.068l0.064,-0.064l0.061,-0.064l0.063,-0.069l0.061,-0.067l0.062,-0.07l0.059,-0.067l0.058,-0.069l0.062,-0.075l0.057,-0.071l0.057,-0.072l0.058,-0.074l0.052,-0.07l0.054,-0.074l0.057,-0.08l0.054,-0.078l0.054,-0.078l0.048,-0.073l0.05,-0.078l0.052,-0.081l0.049,-0.081l0.049,-0.081l0.044,-0.077l0.047,-0.084l0.048,-0.085l0.045,-0.085l0.044,-0.084l0.042,-0.082l0.042,-0.087l0.042,-0.086l0.039,-0.085l0.04,-0.089l0.04,-0.09l0.036,-0.085l0.037,-0.092l0.037,-0.092l0.031,-0.081l0.034,-0.095l0.034,-0.094l0.03,-0.088l0.032,-0.096l0.031,-0.097l0.028,-0.091l0.027,-0.091l0.027,-0.099l0.026,-0.093l0.023,-0.093l0.024,-0.1l0.022,-0.095l0.021,-0.096l0.021,-0.102l0.019,-0.096l0.017,-0.097l0.018,-0.104l0.016,-0.098l0.015,-0.099l0.013,-0.099l0.012,-0.1l0.012,-0.106l0.01,-0.101l0.009,-0.096l0.007,-0.102l0.007,-0.108l0.005,-0.103l0.005,-0.103l0.003,-0.104l0.001,-0.105l0.001,-0.105l-0.001,-0.104l-0.001,-0.105l-0.003,-0.104l-0.005,-0.104l-0.005,-0.102l-0.007,-0.109l-0.007,-0.102l-0.009,-0.095l-0.01,-0.101l-0.012,-0.106l-0.012,-0.1l-0.013,-0.1l-0.015,-0.098l-0.016,-0.098l-0.018,-0.105l-0.017,-0.097l-0.019,-0.095l-0.021,-0.103l-0.021,-0.096l-0.022,-0.094l-0.024,-0.1l-0.023,-0.094l-0.026,-0.093l-0.027,-0.098l-0.027,-0.092l-0.028,-0.091l-0.031,-0.096l-0.032,-0.096l-0.03,-0.088l-0.034,-0.095l-0.034,-0.094l-0.031,-0.081l-0.037,-0.093l-0.037,-0.091l-0.036,-0.085l-0.04,-0.09l-0.04,-0.089l-0.039,-0.085l-0.042,-0.087l-0.042,-0.087l-0.042,-0.081l-0.044,-0.084l-0.045,-0.085l-0.048,-0.086l-0.047,-0.084l-0.044,-0.076l-0.049,-0.081l-0.049,-0.081l-0.052,-0.081l-0.05,-0.078l-0.048,-0.073l-0.054,-0.079l-0.054,-0.077l-0.057,-0.08l-0.054,-0.074l-0.052,-0.07l-0.057,-0.073l-0.058,-0.073l-0.059,-0.073l-0.06,-0.073l-0.058,-0.07l-0.059,-0.067l-0.062,-0.07l-0.061,-0.067l-0.063,-0.068l-0.061,-0.064l-0.064,-0.065l-0.067,-0.067l-0.062,-0.061l-0.067,-0.064l-0.066,-0.062l-0.067,-0.06l-0.067,-0.059l-0.068,-0.059l-0.071,-0.06l-0.068,-0.056l-0.067,-0.054l-0.071,-0.056l-0.073,-0.055l-0.074,-0.055l-0.07,-0.051l-0.071,-0.05l-0.074,-0.051l-0.076,-0.05l-0.075,-0.05l-0.073,-0.046l-0.077,-0.047l-0.077,-0.047l-0.075,-0.043l-0.078,-0.044l-0.076,-0.042l-0.077,-0.041l-0.08,-0.041l-0.08,-0.04l-0.078,-0.038l-0.079,-0.037l-0.082,-0.037l-0.079,-0.035l-0.083,-0.035l-0.081,-0.032l-0.078,-0.031l-0.088,-0.033l-0.084,-0.03l-0.079,-0.028l-0.085,-0.028l-0.085,-0.027l-0.084,-0.025l-0.084,-0.024l-0.084,-0.023l-0.087,-0.022l-0.086,-0.021l-0.086,-0.02l-0.087,-0.019l-0.088,-0.017l-0.087,-0.017l-0.088,-0.015l-0.088,-0.014l-0.085,-0.012l-0.094,-0.013l-0.09,-0.01l-0.086,-0.009l-0.088,-0.008l-0.092,-0.007l-0.091,-0.006l-0.089,-0.004l-0.093,-0.003l-0.094,-0.002l-0.089,-0.001l-0.091,0.001Z" style="fill:#fff;"/><path d="M134.936,5.16l0.132,0.003l0.132,0.004l0.136,0.006l0.132,0.009l0.132,0.009l0.134,0.013l0.134,0.013l0.131,0.016l0.127,0.017l0.132,0.019l0.132,0.021l0.128,0.022l0.128,0.024l0.13,0.026l0.127,0.028l0.126,0.028l0.127,0.032l0.125,0.032l0.126,0.034l0.123,0.035l0.126,0.038l0.126,0.04l0.12,0.04l0.123,0.042l0.125,0.046l0.118,0.044l0.116,0.046l0.118,0.047l0.122,0.051l0.121,0.053l0.115,0.053l0.115,0.053l0.116,0.057l0.114,0.056l0.113,0.058l0.111,0.059l0.117,0.064l0.112,0.064l0.107,0.063l0.109,0.064l0.11,0.068l0.11,0.07l0.109,0.071l0.104,0.07l0.102,0.07l0.107,0.075l0.102,0.075l0.103,0.076l0.103,0.079l0.099,0.078l0.1,0.08l0.099,0.081l0.096,0.082l0.096,0.082l0.1,0.088l0.094,0.087l0.091,0.084l0.089,0.085l0.095,0.092l0.094,0.094l0.086,0.089l0.091,0.095l0.086,0.092l0.087,0.095l0.087,0.099l0.081,0.094l0.083,0.097l0.082,0.099l0.085,0.105l0.078,0.1l0.076,0.099l0.079,0.105l0.075,0.103l0.075,0.104l0.078,0.111l0.072,0.107l0.069,0.105l0.072,0.11l0.069,0.11l0.068,0.112l0.068,0.113l0.063,0.108l0.065,0.114l0.064,0.116l0.061,0.114l0.063,0.121l0.059,0.116l0.057,0.116l0.055,0.116l0.056,0.119l0.055,0.123l0.055,0.124l0.05,0.12l0.049,0.119l0.05,0.126l0.047,0.123l0.047,0.128l0.043,0.121l0.044,0.125l0.042,0.129l0.042,0.13l0.037,0.125l0.038,0.126l0.038,0.138l0.033,0.126l0.034,0.127l0.034,0.14l0.028,0.128l0.029,0.129l0.029,0.14l0.049,0.26l0.024,0.142l0.021,0.137l0.02,0.132l0.018,0.131l0.017,0.138l0.016,0.144l0.014,0.139l0.011,0.133l0.011,0.139l0.009,0.14l0.008,0.141l0.005,0.14l0.005,0.141l0.002,0.141l0.001,0.141l-0.001,0.141l-0.002,0.141l-0.005,0.141l-0.005,0.141l-0.008,0.14l-0.009,0.139l-0.011,0.14l-0.011,0.133l-0.014,0.139l-0.016,0.144l-0.017,0.138l-0.018,0.132l-0.019,0.131l-0.022,0.137l-0.024,0.142l-0.024,0.13l-0.025,0.129l-0.029,0.141l-0.029,0.129l-0.028,0.128l-0.034,0.139l-0.034,0.128l-0.033,0.126l-0.038,0.138l-0.038,0.126l-0.037,0.125l-0.042,0.13l-0.042,0.129l-0.044,0.123l-0.043,0.124l-0.047,0.128l-0.047,0.121l-0.049,0.126l-0.05,0.12l-0.05,0.12l-0.054,0.124l-0.056,0.124l-0.056,0.118l-0.055,0.117l-0.058,0.116l-0.058,0.115l-0.062,0.12l-0.061,0.114l-0.066,0.119l-0.064,0.112l-0.062,0.107l-0.069,0.116l-0.068,0.11l-0.068,0.108l-0.074,0.114l-0.069,0.104l-0.071,0.106l-0.077,0.109l-0.076,0.106l-0.076,0.105l-0.078,0.103l-0.075,0.097l-0.079,0.102l-0.085,0.105l-0.082,0.099l-0.084,0.099l-0.08,0.092l-0.087,0.098l-0.087,0.095l-0.086,0.093l-0.091,0.095l-0.086,0.089l-0.094,0.094l-0.093,0.09l-0.09,0.086l-0.092,0.086l-0.094,0.086l-0.102,0.09l-0.094,0.08l-0.094,0.08l-0.101,0.083l-0.102,0.082l-0.099,0.078l-0.101,0.077l-0.103,0.076l-0.102,0.074l-0.107,0.075l-0.102,0.07l-0.104,0.071l-0.109,0.071l-0.11,0.07l-0.108,0.066l-0.111,0.067l-0.11,0.063l-0.109,0.063l-0.114,0.062l-0.112,0.06l-0.118,0.06l-0.113,0.057l-0.114,0.055l-0.115,0.053l-0.115,0.053l-0.121,0.053l-0.119,0.05l-0.121,0.049l-0.116,0.045l-0.118,0.045l-0.128,0.046l-0.12,0.041l-0.12,0.04l-0.126,0.04l-0.126,0.037l-0.123,0.036l-0.123,0.033l-0.128,0.034l-0.13,0.031l-0.123,0.028l-0.124,0.027l-0.133,0.027l-0.131,0.024l-0.125,0.022l-0.132,0.021l-0.129,0.019l-0.13,0.017l-0.134,0.016l-0.131,0.013l-0.13,0.012l-0.136,0.011l-0.135,0.008l-0.129,0.006l-0.136,0.005l-0.135,0.002l-0.133,0.001l-0.133,-0.001l-0.136,-0.002l-0.135,-0.005l-0.129,-0.006l-0.136,-0.008l-0.135,-0.011l-0.131,-0.012l-0.13,-0.013l-0.135,-0.016l-0.13,-0.017l-0.129,-0.019l-0.131,-0.021l-0.125,-0.022l-0.132,-0.024l-0.132,-0.027l-0.125,-0.027l-0.122,-0.028l-0.131,-0.031l-0.128,-0.034l-0.122,-0.033l-0.124,-0.036l-0.125,-0.037l-0.126,-0.04l-0.121,-0.04l-0.12,-0.041l-0.127,-0.046l-0.118,-0.045l-0.116,-0.045l-0.121,-0.049l-0.12,-0.05l-0.121,-0.053l-0.115,-0.053l-0.115,-0.053l-0.113,-0.055l-0.114,-0.057l-0.118,-0.06l-0.111,-0.06l-0.115,-0.062l-0.109,-0.063l-0.11,-0.063l-0.111,-0.067l-0.108,-0.066l-0.109,-0.07l-0.109,-0.071l-0.105,-0.071l-0.102,-0.07l-0.106,-0.075l-0.102,-0.074l-0.103,-0.076l-0.101,-0.077l-0.1,-0.078l-0.102,-0.082l-0.097,-0.08l-0.099,-0.083l-0.096,-0.083l-0.098,-0.087l-0.094,-0.086l-0.093,-0.086l-0.09,-0.086l-0.093,-0.09l-0.093,-0.094l-0.087,-0.089l-0.091,-0.095l-0.085,-0.093l-0.084,-0.091l-0.091,-0.102l-0.083,-0.096l-0.08,-0.095l-0.083,-0.099l-0.084,-0.105l-0.079,-0.102l-0.075,-0.097l-0.078,-0.103l-0.077,-0.105l-0.076,-0.106l-0.076,-0.109l-0.071,-0.106l-0.07,-0.104l-0.073,-0.114l-0.068,-0.108l-0.068,-0.11l-0.069,-0.116l-0.062,-0.107l-0.065,-0.112l-0.065,-0.119l-0.061,-0.114l-0.063,-0.12l-0.058,-0.115l-0.057,-0.116l-0.056,-0.117l-0.055,-0.118l-0.056,-0.124l-0.054,-0.124l-0.05,-0.12l-0.05,-0.12l-0.05,-0.126l-0.046,-0.121l-0.046,-0.123l-0.046,-0.129l-0.044,-0.129l-0.041,-0.123l-0.041,-0.13l-0.038,-0.125l-0.037,-0.126l-0.039,-0.138l-0.033,-0.126l-0.033,-0.128l-0.034,-0.139l-0.029,-0.128l-0.029,-0.129l-0.028,-0.135l-0.026,-0.135l-0.025,-0.136l-0.023,-0.136l-0.021,-0.137l-0.019,-0.131l-0.018,-0.132l-0.018,-0.138l-0.016,-0.144l-0.013,-0.139l-0.012,-0.133l-0.011,-0.14l-0.009,-0.139l-0.007,-0.14l-0.006,-0.141l-0.004,-0.141l-0.002,-0.141l-0.001,-0.141l0.001,-0.141l0.002,-0.141l0.004,-0.141l0.006,-0.14l0.007,-0.141l0.009,-0.14l0.011,-0.139l0.012,-0.133l0.013,-0.139l0.016,-0.144l0.018,-0.138l0.018,-0.131l0.019,-0.132l0.021,-0.137l0.023,-0.136l0.025,-0.136l0.026,-0.135l0.028,-0.135l0.029,-0.129l0.029,-0.128l0.034,-0.14l0.033,-0.127l0.033,-0.126l0.039,-0.138l0.037,-0.126l0.038,-0.125l0.041,-0.13l0.041,-0.123l0.044,-0.131l0.046,-0.127l0.045,-0.122l0.047,-0.123l0.05,-0.126l0.05,-0.119l0.05,-0.12l0.054,-0.124l0.055,-0.123l0.056,-0.119l0.056,-0.116l0.057,-0.116l0.058,-0.116l0.063,-0.121l0.062,-0.114l0.064,-0.116l0.065,-0.114l0.062,-0.108l0.068,-0.113l0.069,-0.112l0.068,-0.11l0.072,-0.11l0.07,-0.105l0.072,-0.107l0.077,-0.111l0.075,-0.104l0.076,-0.103l0.079,-0.105l0.076,-0.099l0.078,-0.1l0.084,-0.105l0.083,-0.099l0.079,-0.093l0.084,-0.098l0.091,-0.102l0.084,-0.092l0.085,-0.092l0.091,-0.095l0.087,-0.089l0.093,-0.094l0.095,-0.092l0.09,-0.085l0.091,-0.084l0.094,-0.087l0.096,-0.085l0.098,-0.085l0.101,-0.084l0.095,-0.079l0.1,-0.08l0.1,-0.078l0.103,-0.079l0.103,-0.076l0.102,-0.075l0.106,-0.075l0.102,-0.07l0.105,-0.07l0.109,-0.071l0.109,-0.07l0.111,-0.068l0.108,-0.064l0.108,-0.063l0.111,-0.064l0.117,-0.064l0.112,-0.059l0.112,-0.058l0.114,-0.056l0.116,-0.057l0.115,-0.053l0.115,-0.053l0.121,-0.053l0.123,-0.051l0.118,-0.047l0.116,-0.046l0.118,-0.044l0.124,-0.046l0.123,-0.042l0.121,-0.04l0.126,-0.04l0.125,-0.038l0.124,-0.035l0.125,-0.034l0.125,-0.032l0.127,-0.032l0.126,-0.028l0.128,-0.028l0.129,-0.026l0.129,-0.024l0.128,-0.022l0.131,-0.021l0.133,-0.019l0.126,-0.017l0.131,-0.016l0.134,-0.013l0.134,-0.013l0.132,-0.009l0.133,-0.009l0.135,-0.006l0.132,-0.004l0.132,-0.003l0.137,-0.001l0.136,0.001Zm-0.228,3l-0.094,0.002l-0.094,0.003l-0.091,0.004l-0.094,0.006l-0.092,0.007l-0.088,0.008l-0.089,0.009l-0.092,0.011l-0.093,0.012l-0.089,0.013l-0.089,0.014l-0.088,0.015l-0.091,0.017l-0.087,0.018l-0.087,0.019l-0.089,0.02l-0.087,0.021l-0.088,0.023l-0.086,0.023l-0.087,0.025l-0.085,0.026l-0.083,0.026l-0.087,0.029l-0.084,0.029l-0.081,0.029l-0.085,0.032l-0.087,0.035l-0.085,0.034l-0.08,0.033l-0.078,0.034l-0.082,0.038l-0.083,0.038l-0.079,0.039l-0.082,0.041l-0.081,0.041l-0.08,0.043l-0.075,0.041l-0.077,0.043l-0.082,0.048l-0.077,0.046l-0.076,0.047l-0.074,0.047l-0.074,0.048l-0.075,0.051l-0.078,0.054l-0.072,0.05l-0.075,0.055l-0.073,0.054l-0.07,0.053l-0.073,0.057l-0.07,0.057l-0.074,0.061l-0.068,0.057l-0.067,0.058l-0.068,0.06l-0.067,0.062l-0.07,0.065l-0.07,0.066l-0.064,0.062l-0.062,0.062l-0.067,0.069l-0.062,0.065l-0.064,0.069l-0.066,0.072l-0.057,0.064l-0.06,0.07l-0.064,0.076l-0.06,0.071l-0.055,0.069l-0.058,0.074l-0.06,0.078l-0.055,0.073l-0.057,0.078l-0.056,0.078l-0.051,0.073l-0.052,0.077l-0.056,0.084l-0.05,0.078l-0.05,0.08l-0.051,0.081l-0.047,0.08l-0.051,0.087l-0.048,0.084l-0.045,0.082l-0.046,0.086l-0.042,0.08l-0.043,0.087l-0.045,0.09l-0.042,0.089l-0.042,0.088l-0.039,0.087l-0.038,0.086l-0.038,0.092l-0.039,0.093l-0.034,0.088l-0.036,0.092l-0.035,0.096l-0.033,0.091l-0.03,0.089l-0.032,0.098l-0.03,0.092l-0.029,0.098l-0.03,0.098l-0.024,0.089l-0.027,0.1l-0.026,0.1l-0.022,0.091l-0.023,0.101l-0.023,0.103l-0.02,0.098l-0.019,0.098l-0.018,0.098l-0.017,0.1l-0.015,0.099l-0.016,0.106l-0.014,0.107l-0.013,0.101l-0.011,0.096l-0.01,0.102l-0.009,0.109l-0.008,0.104l-0.007,0.104l-0.006,0.104l-0.004,0.106l-0.003,0.105l-0.002,0.106l0,0.106l0,0.106l0.002,0.106l0.003,0.106l0.004,0.105l0.006,0.104l0.007,0.104l0.008,0.103l0.009,0.109l0.01,0.103l0.011,0.096l0.013,0.101l0.014,0.106l0.016,0.107l0.015,0.1l0.017,0.099l0.018,0.098l0.019,0.098l0.02,0.098l0.023,0.102l0.023,0.102l0.022,0.09l0.026,0.101l0.027,0.1l0.024,0.089l0.03,0.098l0.029,0.098l0.03,0.092l0.032,0.098l0.031,0.09l0.032,0.09l0.035,0.094l0.036,0.094l0.035,0.089l0.038,0.093l0.038,0.091l0.039,0.088l0.037,0.084l0.043,0.089l0.042,0.089l0.044,0.089l0.044,0.087l0.043,0.082l0.046,0.087l0.044,0.079l0.048,0.085l0.052,0.088l0.046,0.078l0.051,0.082l0.051,0.082l0.048,0.075l0.056,0.083l0.053,0.079l0.052,0.075l0.055,0.076l0.055,0.076l0.057,0.075l0.061,0.079l0.057,0.073l0.055,0.069l0.06,0.071l0.063,0.075l0.061,0.071l0.057,0.064l0.066,0.072l0.064,0.069l0.062,0.065l0.067,0.069l0.062,0.062l0.066,0.063l0.069,0.067l0.069,0.064l0.067,0.061l0.066,0.059l0.069,0.059l0.07,0.059l0.072,0.059l0.068,0.055l0.073,0.057l0.072,0.055l0.073,0.054l0.075,0.054l0.072,0.051l0.078,0.054l0.075,0.051l0.074,0.048l0.074,0.047l0.078,0.048l0.075,0.045l0.08,0.046l0.079,0.045l0.077,0.042l0.08,0.043l0.076,0.039l0.082,0.041l0.082,0.039l0.083,0.039l0.082,0.038l0.078,0.034l0.082,0.034l0.083,0.034l0.087,0.033l0.085,0.033l0.078,0.028l0.087,0.03l0.087,0.029l0.083,0.026l0.085,0.026l0.087,0.025l0.089,0.024l0.085,0.022l0.084,0.02l0.092,0.021l0.09,0.02l0.084,0.017l0.088,0.016l0.091,0.016l0.089,0.014l0.092,0.013l0.09,0.012l0.088,0.011l0.093,0.009l0.091,0.009l0.089,0.006l0.091,0.006l0.097,0.004l0.091,0.004l0.091,0.001l0.095,0.001l0.095,-0.001l0.091,-0.001l0.091,-0.004l0.097,-0.004l0.09,-0.006l0.089,-0.006l0.092,-0.009l0.092,-0.009l0.088,-0.011l0.091,-0.012l0.091,-0.013l0.089,-0.014l0.092,-0.016l0.087,-0.016l0.084,-0.017l0.09,-0.02l0.092,-0.021l0.085,-0.02l0.084,-0.022l0.089,-0.024l0.087,-0.025l0.086,-0.026l0.083,-0.026l0.087,-0.029l0.086,-0.03l0.078,-0.028l0.085,-0.033l0.088,-0.033l0.082,-0.034l0.082,-0.034l0.078,-0.034l0.083,-0.038l0.082,-0.039l0.082,-0.039l0.082,-0.041l0.076,-0.039l0.08,-0.043l0.078,-0.042l0.078,-0.045l0.08,-0.046l0.075,-0.045l0.078,-0.048l0.075,-0.047l0.073,-0.048l0.076,-0.051l0.078,-0.054l0.072,-0.051l0.074,-0.054l0.073,-0.054l0.072,-0.055l0.073,-0.057l0.069,-0.055l0.068,-0.056l0.073,-0.062l0.072,-0.062l0.064,-0.056l0.067,-0.061l0.068,-0.064l0.07,-0.067l0.066,-0.063l0.061,-0.062l0.067,-0.069l0.063,-0.065l0.064,-0.069l0.062,-0.068l0.059,-0.068l0.066,-0.075l0.06,-0.071l0.059,-0.071l0.055,-0.069l0.057,-0.073l0.062,-0.079l0.056,-0.075l0.055,-0.076l0.055,-0.076l0.052,-0.075l0.054,-0.079l0.055,-0.083l0.049,-0.075l0.051,-0.082l0.051,-0.082l0.046,-0.078l0.051,-0.088l0.049,-0.085l0.043,-0.079l0.047,-0.087l0.043,-0.082l0.044,-0.087l0.043,-0.089l0.043,-0.089l0.042,-0.089l0.038,-0.084l0.038,-0.088l0.038,-0.091l0.039,-0.093l0.035,-0.089l0.035,-0.094l0.033,-0.089l0.034,-0.095l0.033,-0.096l0.031,-0.092l0.029,-0.092l0.03,-0.098l0.029,-0.098l0.025,-0.089l0.026,-0.1l0.026,-0.101l0.022,-0.09l0.023,-0.102l0.023,-0.102l0.019,-0.092l0.02,-0.104l0.019,-0.104l0.016,-0.093l0.016,-0.1l0.015,-0.107l0.015,-0.106l0.013,-0.101l0.01,-0.096l0.01,-0.103l0.01,-0.109l0.008,-0.103l0.006,-0.104l0.006,-0.104l0.004,-0.105l0.003,-0.106l0.002,-0.106l0.001,-0.106l-0.001,-0.106l-0.002,-0.106l-0.003,-0.105l-0.004,-0.106l-0.006,-0.104l-0.006,-0.104l-0.008,-0.104l-0.01,-0.109l-0.01,-0.102l-0.01,-0.096l-0.013,-0.101l-0.015,-0.107l-0.015,-0.106l-0.016,-0.099l-0.016,-0.094l-0.019,-0.104l-0.02,-0.104l-0.019,-0.092l-0.023,-0.103l-0.023,-0.101l-0.022,-0.091l-0.026,-0.1l-0.026,-0.1l-0.025,-0.089l-0.029,-0.098l-0.03,-0.098l-0.029,-0.092l-0.031,-0.092l-0.033,-0.095l-0.034,-0.096l-0.033,-0.091l-0.035,-0.092l-0.035,-0.088l-0.039,-0.093l-0.038,-0.092l-0.038,-0.086l-0.039,-0.087l-0.041,-0.088l-0.043,-0.089l-0.044,-0.09l-0.043,-0.087l-0.043,-0.08l-0.046,-0.086l-0.045,-0.082l-0.048,-0.084l-0.05,-0.087l-0.048,-0.08l-0.05,-0.081l-0.05,-0.08l-0.051,-0.078l-0.055,-0.084l-0.053,-0.077l-0.051,-0.073l-0.056,-0.078l-0.056,-0.078l-0.055,-0.073l-0.06,-0.078l-0.059,-0.074l-0.055,-0.069l-0.059,-0.071l-0.062,-0.073l-0.064,-0.073l-0.059,-0.068l-0.062,-0.068l-0.064,-0.069l-0.063,-0.065l-0.067,-0.069l-0.061,-0.062l-0.065,-0.062l-0.069,-0.066l-0.07,-0.065l-0.067,-0.062l-0.066,-0.057l-0.07,-0.061l-0.071,-0.06l-0.07,-0.058l-0.071,-0.057l-0.073,-0.057l-0.07,-0.053l-0.073,-0.054l-0.074,-0.055l-0.072,-0.05l-0.078,-0.054l-0.076,-0.051l-0.073,-0.048l-0.075,-0.047l-0.075,-0.047l-0.078,-0.046l-0.082,-0.048l-0.076,-0.043l-0.075,-0.041l-0.08,-0.043l-0.081,-0.041l-0.082,-0.041l-0.08,-0.039l-0.082,-0.038l-0.083,-0.038l-0.078,-0.034l-0.079,-0.033l-0.085,-0.034l-0.088,-0.035l-0.085,-0.032l-0.081,-0.029l-0.083,-0.029l-0.087,-0.029l-0.083,-0.026l-0.086,-0.026l-0.087,-0.025l-0.085,-0.023l-0.088,-0.023l-0.088,-0.021l-0.089,-0.02l-0.087,-0.019l-0.087,-0.018l-0.09,-0.017l-0.089,-0.015l-0.089,-0.014l-0.088,-0.013l-0.094,-0.012l-0.091,-0.011l-0.089,-0.009l-0.088,-0.008l-0.093,-0.007l-0.093,-0.006l-0.091,-0.004l-0.094,-0.003l-0.094,-0.002l-0.092,-0.001l-0.092,0.001Z" style="fill:#fff;"/><path d="M147.408,2.394l0.177,0.003l0.176,0.006l0.172,0.008l0.173,0.011l0.172,0.013l0.17,0.015l0.168,0.018l0.169,0.019l0.167,0.022l0.166,0.025l0.166,0.026l0.161,0.028l0.164,0.031l0.161,0.033l0.159,0.035l0.159,0.037l0.156,0.039l0.157,0.042l0.154,0.043l0.152,0.046l0.15,0.047l0.148,0.048l0.15,0.052l0.147,0.054l0.145,0.056l0.146,0.059l0.139,0.059l0.141,0.062l0.135,0.062l0.135,0.065l1.466,0.74l-1.353,2.678l-1.434,-0.724l-0.092,-0.044l-0.093,-0.044l-0.094,-0.041l-0.098,-0.042l-0.095,-0.038l-0.1,-0.038l-0.102,-0.037l-0.101,-0.036l-0.109,-0.035l-0.11,-0.035l-0.109,-0.032l-0.111,-0.032l-0.111,-0.029l-0.114,-0.029l-0.115,-0.027l-0.121,-0.026l-0.117,-0.024l-0.119,-0.023l-0.124,-0.021l-0.123,-0.02l-0.124,-0.018l-0.125,-0.016l-0.127,-0.015l-0.129,-0.014l-0.128,-0.011l-0.132,-0.01l-0.13,-0.008l-0.133,-0.007l-0.132,-0.004l-0.133,-0.003l-0.137,-0.001l-0.15,0.001l-0.149,0.004l-0.148,0.005l-0.147,0.008l-0.144,0.01l-0.143,0.012l-0.144,0.015l-0.144,0.016l-0.139,0.018l-0.137,0.02l-0.136,0.022l-0.135,0.025l-0.135,0.026l-0.13,0.028l-0.129,0.029l-0.13,0.032l-0.126,0.033l-0.123,0.035l-0.12,0.036l-0.119,0.038l-0.12,0.04l-0.115,0.041l-0.11,0.041l-0.11,0.044l-0.11,0.045l-0.102,0.045l-0.102,0.047l-0.102,0.05l-0.096,0.049l-0.094,0.05l-0.09,0.05l-0.091,0.053l-0.085,0.052l-0.078,0.051l-0.078,0.053l-0.081,0.058l-0.072,0.053l-0.073,0.058l-0.029,0.023l-0.065,0.055l-0.07,0.062l-0.023,0.021l-0.022,0.021l-0.066,0.066l-0.02,0.02l-0.023,0.024l-0.056,0.063l-0.017,0.02l-0.023,0.026l-0.025,0.031l-0.018,0.023l-0.016,0.022l-0.028,0.037l-0.016,0.023l-0.032,0.046l-0.011,0.017l-0.022,0.035l-0.019,0.032l-0.01,0.017l-0.023,0.043l-0.025,0.051l-0.009,0.02l-0.023,0.053l-0.001,0.002l-0.013,0.035l-0.012,0.035l-0.001,0.001l-0.015,0.053l-0.005,0.018l-0.004,0.018l-0.012,0.055l0,0.002l-0.005,0.032l-0.003,0.02l-0.001,0.003l-0.003,0.034l-0.001,0.02l-0.002,0.04l0,1.52l-3,0l0,-1.584l0.003,-0.084l0.004,-0.083l0.007,-0.084l0.006,-0.069l0.011,-0.099l0.012,-0.083l0.011,-0.069l0.017,-0.098l0.018,-0.082l0.014,-0.065l0.02,-0.083l0.022,-0.082l0.019,-0.064l0.023,-0.082l0.033,-0.097l0.023,-0.063l0.023,-0.063l0.037,-0.096l0.034,-0.077l0.026,-0.062l0.036,-0.077l0.031,-0.063l0.037,-0.076l0.04,-0.074l0.038,-0.071l0.046,-0.077l0.036,-0.06l0.036,-0.058l0.046,-0.074l0.048,-0.07l0.045,-0.066l0.05,-0.068l0.038,-0.052l0.05,-0.067l0.053,-0.066l0.046,-0.056l0.05,-0.061l0.059,-0.067l0.052,-0.058l0.046,-0.05l0.057,-0.062l0.062,-0.063l0.053,-0.052l0.049,-0.049l0.064,-0.061l0.066,-0.06l0.052,-0.047l0.06,-0.053l0.061,-0.052l0.059,-0.05l0.068,-0.055l0.123,-0.097l0.131,-0.097l0.127,-0.09l0.135,-0.092l0.14,-0.091l0.141,-0.086l0.14,-0.082l0.144,-0.081l0.148,-0.079l0.149,-0.075l0.15,-0.073l0.153,-0.071l0.158,-0.069l0.156,-0.065l0.16,-0.064l0.165,-0.062l0.164,-0.057l0.163,-0.055l0.169,-0.054l0.169,-0.051l0.172,-0.048l0.175,-0.046l0.171,-0.042l0.179,-0.041l0.179,-0.038l0.177,-0.034l0.182,-0.033l0.185,-0.03l0.186,-0.028l0.186,-0.024l0.186,-0.021l0.186,-0.019l0.191,-0.016l0.194,-0.014l0.192,-0.01l0.192,-0.007l0.197,-0.004l0.195,-0.002l0.173,0.002Z" style="fill:#fff;"/><circle cx="210.549" cy="127.994" r="3.2" style="fill:#fff;"/><circle cx="7.749" cy="127.994" r="3.2" style="fill:#fff;"/><defs><linearGradient id="_Linear1" x1="0" y1="0" x2="1" y2="0" gradientUnits="userSpaceOnUse" gradientTransform="matrix(8.1108e-15,132.459,-132.459,8.1108e-15,122.373,102.502)"><stop offset="0" style="stop-color:#fff;stop-opacity:1"/><stop offset="1" style="stop-color:#fff;stop-opacity:0"/></linearGradient><linearGradient id="_Linear2" x1="0" y1="0" x2="1" y2="0" gradientUnits="userSpaceOnUse" gradientTransform="matrix(8.1108e-15,132.459,-132.459,8.1108e-15,122.373,102.502)"><stop offset="0" style="stop-color:#fff;stop-opacity:1"/><stop offset="1" style="stop-color:#fff;stop-opacity:0"/></linearGradient><linearGradient id="_Linear3" x1="0" y1="0" x2="1" y2="0" gradientUnits="userSpaceOnUse" gradientTransform="matrix(8.1108e-15,132.459,-132.459,8.1108e-15,122.373,102.502)"><stop offset="0" style="stop-color:#fff;stop-opacity:1"/><stop offset="1" style="stop-color:#fff;stop-opacity:0"/></linearGradient><linearGradient id="_Linear4" x1="0" y1="0" x2="1" y2="0" gradientUnits="userSpaceOnUse" gradientTransform="matrix(8.1108e-15,132.459,-132.459,8.1108e-15,122.373,102.502)"><stop offset="0" style="stop-color:#fff;stop-opacity:1"/><stop offset="1" style="stop-color:#fff;stop-opacity:0"/></linearGradient><linearGradient id="_Linear5" x1="0" y1="0" x2="1" y2="0" gradientUnits="userSpaceOnUse" gradientTransform="matrix(8.1108e-15,132.459,-132.459,8.1108e-15,122.373,102.502)"><stop offset="0" style="stop-color:#fff;stop-opacity:1"/><stop offset="1" style="stop-color:#fff;stop-opacity:0"/></linearGradient><linearGradient id="_Linear6" x1="0" y1="0" x2="1" y2="0" gradientUnits="userSpaceOnUse" gradientTransform="matrix(8.1108e-15,132.459,-132.459,8.1108e-15,122.373,102.502)"><stop offset="0" style="stop-color:#fff;stop-opacity:1"/><stop offset="1" style="stop-color:#fff;stop-opacity:0"/></linearGradient><linearGradient id="_Linear7" x1="0" y1="0" x2="1" y2="0" gradientUnits="userSpaceOnUse" gradientTransform="matrix(8.1108e-15,132.459,-132.459,8.1108e-15,122.373,102.502)"><stop offset="0" style="stop-color:#fff;stop-opacity:1"/><stop offset="1" style="stop-color:#fff;stop-opacity:0"/></linearGradient><linearGradient id="_Linear8" x1="0" y1="0" x2="1" y2="0" gradientUnits="userSpaceOnUse" gradientTransform="matrix(8.1108e-15,132.459,-132.459,8.1108e-15,122.373,102.502)"><stop offset="0" style="stop-color:#fff;stop-opacity:1"/><stop offset="1" style="stop-color:#fff;stop-opacity:0"/></linearGradient><linearGradient id="_Linear9" x1="0" y1="0" x2="1" y2="0" gradientUnits="userSpaceOnUse" gradientTransform="matrix(8.1108e-15,132.459,-132.459,8.1108e-15,122.373,102.502)"><stop offset="0" style="stop-color:#fff;stop-opacity:1"/><stop offset="1" style="stop-color:#fff;stop-opacity:0"/></linearGradient><linearGradient id="_Linear10" x1="0" y1="0" x2="1" y2="0" gradientUnits="userSpaceOnUse" gradientTransform="matrix(8.1108e-15,132.459,-132.459,8.1108e-15,122.373,102.502)"><stop offset="0" style="stop-color:#fff;stop-opacity:1"/><stop offset="1" style="stop-color:#fff;stop-opacity:0"/></linearGradient><linearGradient id="_Linear11" x1="0" y1="0" x2="1" y2="0" gradientUnits="userSpaceOnUse" gradientTransform="matrix(8.1108e-15,132.459,-132.459,8.1108e-15,122.373,102.502)"><stop offset="0" style="stop-color:#fff;stop-opacity:1"/><stop offset="1" style="stop-color:#fff;stop-opacity:0"/></linearGradient><linearGradient id="_Linear12" x1="0" y1="0" x2="1" y2="0" gradientUnits="userSpaceOnUse" gradientTransform="matrix(8.1108e-15,132.459,-132.459,8.1108e-15,122.373,102.502)"><stop offset="0" style="stop-color:#fff;stop-opacity:1"/><stop offset="1" style="stop-color:#fff;stop-opacity:0"/></linearGradient><linearGradient id="_Linear13" x1="0" y1="0" x2="1" y2="0" gradientUnits="userSpaceOnUse" gradientTransform="matrix(8.1108e-15,132.459,-132.459,8.1108e-15,122.373,102.502)"><stop offset="0" style="stop-color:#fff;stop-opacity:1"/><stop offset="1" style="stop-color:#fff;stop-opacity:0"/></linearGradient><linearGradient id="_Linear14" x1="0" y1="0" x2="1" y2="0" gradientUnits="userSpaceOnUse" gradientTransform="matrix(8.1108e-15,132.459,-132.459,8.1108e-15,122.373,102.502)"><stop offset="0" style="stop-color:#fff;stop-opacity:1"/><stop offset="1" style="stop-color:#fff;stop-opacity:0"/></linearGradient><linearGradient id="_Linear15" x1="0" y1="0" x2="1" y2="0" gradientUnits="userSpaceOnUse" gradientTransform="matrix(8.1108e-15,132.459,-132.459,8.1108e-15,122.373,102.502)"><stop offset="0" style="stop-color:#fff;stop-opacity:1"/><stop offset="1" style="stop-color:#fff;stop-opacity:0"/></linearGradient></defs></svg>