<?xml version="1.0" encoding="UTF-8" standalone="no"?><!DOCTYPE svg PUBLIC "-//W3C//DTD SVG 1.1//EN" "http://www.w3.org/Graphics/SVG/1.1/DTD/svg11.dtd"><svg width="100%" height="100%" viewBox="0 0 136 103" version="1.1" xmlns="http://www.w3.org/2000/svg" xmlns:xlink="http://www.w3.org/1999/xlink" xml:space="preserve" xmlns:serif="http://www.serif.com/" style="fill-rule:evenodd;clip-rule:evenodd;stroke-linejoin:round;stroke-miterlimit:1.41421;"><rect id="logo" x="0" y="0" width="135.44" height="102.672" style="fill:none;"/><clipPath id="_clip1"><rect x="0" y="0" width="135.44" height="102.672"/></clipPath><g clip-path="url(#_clip1)"><text x="13.036px" y="80.951px" style="font-family:'PalatinoLinotype-Bold', 'Palatino Linotype', serif;font-weight:700;font-size:20px;fill:#231d1d;">K<tspan x="29.227px 45.583px 58.6px 76.06px 84.643px 97.563px 112.64px " y="80.951px 80.951px 80.951px 80.951px 80.951px 80.951px 80.951px ">UŚNIERZ</tspan></text><path d="M69.071,50.389c-0.928,-0.866 -1.656,-1.83 -2.072,-2.845c-2.015,-4.933 -0.036,-7.108 2.106,-7.247c1.909,-0.124 4.105,2.35 2.053,7.267c-0.423,1.011 -1.155,1.967 -2.087,2.825m23.583,-12.913c0,0 -0.821,-3.418 -6.236,-7.415c-2.013,-1.485 -0.785,-4.326 -0.785,-4.326c0,0 0.718,2.396 2.446,1.591c1.727,-0.805 1.654,-3.963 -0.715,-4.616c-2.367,-0.653 -6.467,1.719 -4.999,5.752c1.469,4.034 6.33,7.974 -0.01,12.94c-6.34,4.967 -1.905,10.028 -1.001,10.095c0.902,0.066 3.329,1.423 6.061,-3.196c0,0 0.23,2.2 -4.444,5.045c-3.063,1.863 -8.103,0.911 -11.782,-1.355c1.736,-1.56 3.322,-3.447 4.659,-5.608c4.393,-7.101 -1.38,-12.324 -4.95,-13.802c0.962,-3.566 2.315,-7.509 3.99,-9.631c0,0 -4.834,-4.598 -4.952,-20.986l-0.693,-1.297l-0.692,1.297c-0.118,16.388 -4.952,20.986 -4.952,20.986c1.66,2.103 3.006,5.999 3.966,9.541c-3.559,1.337 -9.667,6.573 -5.247,13.836c1.323,2.174 2.897,4.075 4.624,5.65c-3.696,2.241 -8.748,3.158 -11.799,1.27c-4.653,-2.879 -4.407,-5.077 -4.407,-5.077c2.699,4.639 5.135,3.3 6.038,3.24c0.904,-0.059 5.376,-5.088 -0.926,-10.101c-6.303,-5.013 -1.413,-8.918 0.085,-12.939c1.499,-4.023 -2.583,-6.425 -4.956,-5.79c-2.373,0.635 -2.47,3.793 -0.749,4.61c1.722,0.818 2.458,-1.572 2.458,-1.572c0,0 1.206,2.85 -0.817,4.32c-5.443,3.957 -6.291,7.369 -6.291,7.369c-6.955,-6.159 -7.962,2.869 -7.962,2.869c0,0 2.845,-2.2 5.713,0.565c2.868,2.765 3.936,11.839 11.056,15.131c4.593,2.124 10.001,1.093 14.674,-2.186c4.647,3.309 10.044,4.378 14.65,2.29c7.144,-3.239 8.28,-12.306 11.168,-15.049c2.889,-2.743 5.718,-0.522 5.718,-0.522c0,0 -0.941,-9.036 -7.941,-2.929" style="fill:#231d1d;fill-rule:nonzero;"/><text x="0.205px" y="101.659px" style="font-family:'WorkSans-Regular', 'Work Sans';font-size:10px;fill:#231d1d;">S<tspan x="6.915px 13.475px 21.255px " y="101.659px 101.659px 101.659px ">KÓR</tspan>Y <tspan x="37.295px 40.025px 43.735px 50.295px 57.945px 64.545px 72.045px 79.205px 86.845px 92.445px 96.155px 98.885px 102.595px 108.995px 116.495px 122.835px 129.785px " y="101.659px 101.659px 101.659px 101.659px 101.659px 101.659px 101.659px 101.659px 101.659px 101.659px 101.659px 101.659px 101.659px 101.659px 101.659px 101.659px 101.659px ">| KOŻUCHY | FUTRA</tspan></text></g></svg>